<?xml version="1.0" encoding="utf-8"?>
<svg xmlns="http://www.w3.org/2000/svg" xmlns:xlink="http://www.w3.org/1999/xlink" width="600" height="400" viewBox="0 0 2400 1600">
<defs>
  <clipPath id="clip060">
    <rect x="0" y="0" width="2400" height="1600"/>
  </clipPath>
</defs>
<path clip-path="url(#clip060)" d="
M0 1600 L2400 1600 L2400 0 L0 0  Z
  " fill="#ffffff" fill-rule="evenodd" fill-opacity="1"/>
<defs>
  <clipPath id="clip061">
    <rect x="480" y="0" width="1681" height="1600"/>
  </clipPath>
</defs>
<path clip-path="url(#clip060)" d="
M300.815 1423.18 L2352.76 1423.18 L2352.76 47.2441 L300.815 47.2441  Z
  " fill="#ffffff" fill-rule="evenodd" fill-opacity="1"/>
<defs>
  <clipPath id="clip062">
    <rect x="300" y="47" width="2053" height="1377"/>
  </clipPath>
</defs>
<polyline clip-path="url(#clip062)" style="stroke:#000000; stroke-width:2; stroke-opacity:0.1; fill:none" points="
  358.885,1423.18 358.885,47.2441 
  "/>
<polyline clip-path="url(#clip062)" style="stroke:#000000; stroke-width:2; stroke-opacity:0.1; fill:none" points="
  746.044,1423.18 746.044,47.2441 
  "/>
<polyline clip-path="url(#clip062)" style="stroke:#000000; stroke-width:2; stroke-opacity:0.1; fill:none" points="
  1133.2,1423.18 1133.2,47.2441 
  "/>
<polyline clip-path="url(#clip062)" style="stroke:#000000; stroke-width:2; stroke-opacity:0.1; fill:none" points="
  1520.36,1423.18 1520.36,47.2441 
  "/>
<polyline clip-path="url(#clip062)" style="stroke:#000000; stroke-width:2; stroke-opacity:0.1; fill:none" points="
  1907.52,1423.18 1907.52,47.2441 
  "/>
<polyline clip-path="url(#clip062)" style="stroke:#000000; stroke-width:2; stroke-opacity:0.1; fill:none" points="
  2294.68,1423.18 2294.68,47.2441 
  "/>
<polyline clip-path="url(#clip062)" style="stroke:#000000; stroke-width:2; stroke-opacity:0.1; fill:none" points="
  300.815,1384.24 2352.76,1384.24 
  "/>
<polyline clip-path="url(#clip062)" style="stroke:#000000; stroke-width:2; stroke-opacity:0.1; fill:none" points="
  300.815,1191.04 2352.76,1191.04 
  "/>
<polyline clip-path="url(#clip062)" style="stroke:#000000; stroke-width:2; stroke-opacity:0.1; fill:none" points="
  300.815,997.85 2352.76,997.85 
  "/>
<polyline clip-path="url(#clip062)" style="stroke:#000000; stroke-width:2; stroke-opacity:0.1; fill:none" points="
  300.815,804.656 2352.76,804.656 
  "/>
<polyline clip-path="url(#clip062)" style="stroke:#000000; stroke-width:2; stroke-opacity:0.1; fill:none" points="
  300.815,611.461 2352.76,611.461 
  "/>
<polyline clip-path="url(#clip062)" style="stroke:#000000; stroke-width:2; stroke-opacity:0.1; fill:none" points="
  300.815,418.267 2352.76,418.267 
  "/>
<polyline clip-path="url(#clip062)" style="stroke:#000000; stroke-width:2; stroke-opacity:0.1; fill:none" points="
  300.815,225.073 2352.76,225.073 
  "/>
<polyline clip-path="url(#clip060)" style="stroke:#000000; stroke-width:4; stroke-opacity:1; fill:none" points="
  300.815,1423.18 2352.76,1423.18 
  "/>
<polyline clip-path="url(#clip060)" style="stroke:#000000; stroke-width:4; stroke-opacity:1; fill:none" points="
  300.815,1423.18 300.815,47.2441 
  "/>
<polyline clip-path="url(#clip060)" style="stroke:#000000; stroke-width:4; stroke-opacity:1; fill:none" points="
  358.885,1423.18 358.885,1406.67 
  "/>
<polyline clip-path="url(#clip060)" style="stroke:#000000; stroke-width:4; stroke-opacity:1; fill:none" points="
  746.044,1423.18 746.044,1406.67 
  "/>
<polyline clip-path="url(#clip060)" style="stroke:#000000; stroke-width:4; stroke-opacity:1; fill:none" points="
  1133.2,1423.18 1133.2,1406.67 
  "/>
<polyline clip-path="url(#clip060)" style="stroke:#000000; stroke-width:4; stroke-opacity:1; fill:none" points="
  1520.36,1423.18 1520.36,1406.67 
  "/>
<polyline clip-path="url(#clip060)" style="stroke:#000000; stroke-width:4; stroke-opacity:1; fill:none" points="
  1907.52,1423.18 1907.52,1406.67 
  "/>
<polyline clip-path="url(#clip060)" style="stroke:#000000; stroke-width:4; stroke-opacity:1; fill:none" points="
  2294.68,1423.18 2294.68,1406.67 
  "/>
<polyline clip-path="url(#clip060)" style="stroke:#000000; stroke-width:4; stroke-opacity:1; fill:none" points="
  300.815,1384.24 325.438,1384.24 
  "/>
<polyline clip-path="url(#clip060)" style="stroke:#000000; stroke-width:4; stroke-opacity:1; fill:none" points="
  300.815,1191.04 325.438,1191.04 
  "/>
<polyline clip-path="url(#clip060)" style="stroke:#000000; stroke-width:4; stroke-opacity:1; fill:none" points="
  300.815,997.85 325.438,997.85 
  "/>
<polyline clip-path="url(#clip060)" style="stroke:#000000; stroke-width:4; stroke-opacity:1; fill:none" points="
  300.815,804.656 325.438,804.656 
  "/>
<polyline clip-path="url(#clip060)" style="stroke:#000000; stroke-width:4; stroke-opacity:1; fill:none" points="
  300.815,611.461 325.438,611.461 
  "/>
<polyline clip-path="url(#clip060)" style="stroke:#000000; stroke-width:4; stroke-opacity:1; fill:none" points="
  300.815,418.267 325.438,418.267 
  "/>
<polyline clip-path="url(#clip060)" style="stroke:#000000; stroke-width:4; stroke-opacity:1; fill:none" points="
  300.815,225.073 325.438,225.073 
  "/>
<path clip-path="url(#clip060)" d="M 0 0 M358.885 1445.17 Q355.274 1445.17 353.445 1448.74 Q351.64 1452.28 351.64 1459.41 Q351.64 1466.51 353.445 1470.08 Q355.274 1473.62 358.885 1473.62 Q362.519 1473.62 364.325 1470.08 Q366.153 1466.51 366.153 1459.41 Q366.153 1452.28 364.325 1448.74 Q362.519 1445.17 358.885 1445.17 M358.885 1441.47 Q364.695 1441.47 367.751 1446.07 Q370.829 1450.66 370.829 1459.41 Q370.829 1468.13 367.751 1472.74 Q364.695 1477.32 358.885 1477.32 Q353.075 1477.32 349.996 1472.74 Q346.94 1468.13 346.94 1459.41 Q346.94 1450.66 349.996 1446.07 Q353.075 1441.47 358.885 1441.47 Z" fill="#000000" fill-rule="evenodd" fill-opacity="1" /><path clip-path="url(#clip060)" d="M 0 0 M736.426 1472.72 L744.065 1472.72 L744.065 1446.35 L735.755 1448.02 L735.755 1443.76 L744.019 1442.09 L748.695 1442.09 L748.695 1472.72 L756.334 1472.72 L756.334 1476.65 L736.426 1476.65 L736.426 1472.72 Z" fill="#000000" fill-rule="evenodd" fill-opacity="1" /><path clip-path="url(#clip060)" d="M 0 0 M1127.86 1472.72 L1144.18 1472.72 L1144.18 1476.65 L1122.23 1476.65 L1122.23 1472.72 Q1124.89 1469.96 1129.48 1465.33 Q1134.08 1460.68 1135.26 1459.34 Q1137.51 1456.81 1138.39 1455.08 Q1139.29 1453.32 1139.29 1451.63 Q1139.29 1448.87 1137.35 1447.14 Q1135.43 1445.4 1132.32 1445.4 Q1130.13 1445.4 1127.67 1446.17 Q1125.24 1446.93 1122.46 1448.48 L1122.46 1443.76 Q1125.29 1442.62 1127.74 1442.05 Q1130.19 1441.47 1132.23 1441.47 Q1137.6 1441.47 1140.8 1444.15 Q1143.99 1446.84 1143.99 1451.33 Q1143.99 1453.46 1143.18 1455.38 Q1142.39 1457.28 1140.29 1459.87 Q1139.71 1460.54 1136.61 1463.76 Q1133.5 1466.95 1127.86 1472.72 Z" fill="#000000" fill-rule="evenodd" fill-opacity="1" /><path clip-path="url(#clip060)" d="M 0 0 M1524.61 1458.02 Q1527.97 1458.74 1529.84 1461 Q1531.74 1463.27 1531.74 1466.61 Q1531.74 1471.72 1528.22 1474.52 Q1524.7 1477.32 1518.22 1477.32 Q1516.05 1477.32 1513.73 1476.88 Q1511.44 1476.47 1508.99 1475.61 L1508.99 1471.1 Q1510.93 1472.23 1513.25 1472.81 Q1515.56 1473.39 1518.08 1473.39 Q1522.48 1473.39 1524.77 1471.65 Q1527.09 1469.92 1527.09 1466.61 Q1527.09 1463.55 1524.93 1461.84 Q1522.81 1460.1 1518.99 1460.1 L1514.96 1460.1 L1514.96 1456.26 L1519.17 1456.26 Q1522.62 1456.26 1524.45 1454.89 Q1526.28 1453.5 1526.28 1450.91 Q1526.28 1448.25 1524.38 1446.84 Q1522.5 1445.4 1518.99 1445.4 Q1517.06 1445.4 1514.87 1445.82 Q1512.67 1446.24 1510.03 1447.11 L1510.03 1442.95 Q1512.69 1442.21 1515 1441.84 Q1517.34 1441.47 1519.4 1441.47 Q1524.73 1441.47 1527.83 1443.9 Q1530.93 1446.3 1530.93 1450.43 Q1530.93 1453.3 1529.29 1455.29 Q1527.64 1457.25 1524.61 1458.02 Z" fill="#000000" fill-rule="evenodd" fill-opacity="1" /><path clip-path="url(#clip060)" d="M 0 0 M1910.53 1446.17 L1898.73 1464.61 L1910.53 1464.61 L1910.53 1446.17 M1909.31 1442.09 L1915.18 1442.09 L1915.18 1464.61 L1920.12 1464.61 L1920.12 1468.5 L1915.18 1468.5 L1915.18 1476.65 L1910.53 1476.65 L1910.53 1468.5 L1894.93 1468.5 L1894.93 1463.99 L1909.31 1442.09 Z" fill="#000000" fill-rule="evenodd" fill-opacity="1" /><path clip-path="url(#clip060)" d="M 0 0 M2284.96 1442.09 L2303.32 1442.09 L2303.32 1446.03 L2289.24 1446.03 L2289.24 1454.5 Q2290.26 1454.15 2291.28 1453.99 Q2292.3 1453.8 2293.32 1453.8 Q2299.1 1453.8 2302.48 1456.98 Q2305.86 1460.15 2305.86 1465.56 Q2305.86 1471.14 2302.39 1474.24 Q2298.92 1477.32 2292.6 1477.32 Q2290.42 1477.32 2288.15 1476.95 Q2285.91 1476.58 2283.5 1475.84 L2283.5 1471.14 Q2285.58 1472.28 2287.81 1472.83 Q2290.03 1473.39 2292.51 1473.39 Q2296.51 1473.39 2298.85 1471.28 Q2301.19 1469.18 2301.19 1465.56 Q2301.19 1461.95 2298.85 1459.85 Q2296.51 1457.74 2292.51 1457.74 Q2290.63 1457.74 2288.76 1458.16 Q2286.9 1458.57 2284.96 1459.45 L2284.96 1442.09 Z" fill="#000000" fill-rule="evenodd" fill-opacity="1" /><path clip-path="url(#clip060)" d="M 0 0 M264.871 1370.04 Q261.259 1370.04 259.431 1373.6 Q257.625 1377.14 257.625 1384.27 Q257.625 1391.38 259.431 1394.94 Q261.259 1398.49 264.871 1398.49 Q268.505 1398.49 270.31 1394.94 Q272.139 1391.38 272.139 1384.27 Q272.139 1377.14 270.31 1373.6 Q268.505 1370.04 264.871 1370.04 M264.871 1366.33 Q270.681 1366.33 273.736 1370.94 Q276.815 1375.52 276.815 1384.27 Q276.815 1393 273.736 1397.61 Q270.681 1402.19 264.871 1402.19 Q259.06 1402.19 255.982 1397.61 Q252.926 1393 252.926 1384.27 Q252.926 1375.52 255.982 1370.94 Q259.06 1366.33 264.871 1366.33 Z" fill="#000000" fill-rule="evenodd" fill-opacity="1" /><path clip-path="url(#clip060)" d="M 0 0 M127.364 1210.84 L135.003 1210.84 L135.003 1184.47 L126.693 1186.14 L126.693 1181.88 L134.957 1180.21 L139.632 1180.21 L139.632 1210.84 L147.271 1210.84 L147.271 1214.77 L127.364 1214.77 L127.364 1210.84 Z" fill="#000000" fill-rule="evenodd" fill-opacity="1" /><path clip-path="url(#clip060)" d="M 0 0 M180.512 1189.31 L169.933 1199.93 L180.512 1210.51 L177.757 1213.31 L167.132 1202.69 L156.507 1213.31 L153.776 1210.51 L164.331 1199.93 L153.776 1189.31 L156.507 1186.51 L167.132 1197.13 L177.757 1186.51 L180.512 1189.31 Z" fill="#000000" fill-rule="evenodd" fill-opacity="1" /><path clip-path="url(#clip060)" d="M 0 0 M186.391 1210.84 L194.03 1210.84 L194.03 1184.47 L185.72 1186.14 L185.72 1181.88 L193.984 1180.21 L198.66 1180.21 L198.66 1210.84 L206.299 1210.84 L206.299 1214.77 L186.391 1214.77 L186.391 1210.84 Z" fill="#000000" fill-rule="evenodd" fill-opacity="1" /><path clip-path="url(#clip060)" d="M 0 0 M221.368 1183.29 Q217.757 1183.29 215.928 1186.86 Q214.123 1190.4 214.123 1197.53 Q214.123 1204.63 215.928 1208.2 Q217.757 1211.74 221.368 1211.74 Q225.002 1211.74 226.808 1208.2 Q228.637 1204.63 228.637 1197.53 Q228.637 1190.4 226.808 1186.86 Q225.002 1183.29 221.368 1183.29 M221.368 1179.59 Q227.178 1179.59 230.234 1184.19 Q233.313 1188.78 233.313 1197.53 Q233.313 1206.25 230.234 1210.86 Q227.178 1215.44 221.368 1215.44 Q215.558 1215.44 212.479 1210.86 Q209.424 1206.25 209.424 1197.53 Q209.424 1188.78 212.479 1184.19 Q215.558 1179.59 221.368 1179.59 Z" fill="#000000" fill-rule="evenodd" fill-opacity="1" /><path clip-path="url(#clip060)" d="M 0 0 M233.313 1175.27 L243.45 1175.27 L243.45 1178.35 L233.313 1178.35 L233.313 1175.27 Z" fill="#000000" fill-rule="evenodd" fill-opacity="1" /><path clip-path="url(#clip060)" d="M 0 0 M267.449 1171.81 Q264.891 1171.81 263.386 1173.56 Q261.9 1175.31 261.9 1178.35 Q261.9 1181.38 263.386 1183.15 Q264.891 1184.9 267.449 1184.9 Q270.006 1184.9 271.492 1183.15 Q272.997 1181.38 272.997 1178.35 Q272.997 1175.31 271.492 1173.56 Q270.006 1171.81 267.449 1171.81 M274.991 1159.9 L274.991 1163.36 Q273.561 1162.69 272.094 1162.33 Q270.646 1161.97 269.217 1161.97 Q265.455 1161.97 263.461 1164.51 Q261.487 1167.05 261.204 1172.18 Q262.314 1170.55 263.988 1169.68 Q265.662 1168.8 267.674 1168.8 Q271.906 1168.8 274.351 1171.37 Q276.815 1173.93 276.815 1178.35 Q276.815 1182.68 274.257 1185.29 Q271.699 1187.91 267.449 1187.91 Q262.577 1187.91 260.001 1184.18 Q257.424 1180.44 257.424 1173.35 Q257.424 1166.69 260.584 1162.74 Q263.744 1158.77 269.066 1158.77 Q270.495 1158.77 271.944 1159.06 Q273.411 1159.34 274.991 1159.9 Z" fill="#000000" fill-rule="evenodd" fill-opacity="1" /><path clip-path="url(#clip060)" d="M 0 0 M130.952 1017.64 L147.271 1017.64 L147.271 1021.58 L125.327 1021.58 L125.327 1017.64 Q127.989 1014.89 132.572 1010.26 Q137.179 1005.61 138.359 1004.26 Q140.605 1001.74 141.484 1000 Q142.387 998.244 142.387 996.554 Q142.387 993.8 140.443 992.064 Q138.521 990.328 135.42 990.328 Q133.22 990.328 130.767 991.091 Q128.336 991.855 125.558 993.406 L125.558 988.684 Q128.383 987.55 130.836 986.971 Q133.29 986.392 135.327 986.392 Q140.697 986.392 143.892 989.078 Q147.086 991.763 147.086 996.253 Q147.086 998.383 146.276 1000.3 Q145.489 1002.2 143.382 1004.8 Q142.804 1005.47 139.702 1008.68 Q136.6 1011.88 130.952 1017.64 Z" fill="#000000" fill-rule="evenodd" fill-opacity="1" /><path clip-path="url(#clip060)" d="M 0 0 M180.512 996.115 L169.933 1006.74 L180.512 1017.32 L177.757 1020.12 L167.132 1009.49 L156.507 1020.12 L153.776 1017.32 L164.331 1006.74 L153.776 996.115 L156.507 993.314 L167.132 1003.94 L177.757 993.314 L180.512 996.115 Z" fill="#000000" fill-rule="evenodd" fill-opacity="1" /><path clip-path="url(#clip060)" d="M 0 0 M186.391 1017.64 L194.03 1017.64 L194.03 991.277 L185.72 992.943 L185.72 988.684 L193.984 987.017 L198.66 987.017 L198.66 1017.64 L206.299 1017.64 L206.299 1021.58 L186.391 1021.58 L186.391 1017.64 Z" fill="#000000" fill-rule="evenodd" fill-opacity="1" /><path clip-path="url(#clip060)" d="M 0 0 M221.368 990.096 Q217.757 990.096 215.928 993.661 Q214.123 997.203 214.123 1004.33 Q214.123 1011.44 215.928 1015 Q217.757 1018.54 221.368 1018.54 Q225.002 1018.54 226.808 1015 Q228.637 1011.44 228.637 1004.33 Q228.637 997.203 226.808 993.661 Q225.002 990.096 221.368 990.096 M221.368 986.392 Q227.178 986.392 230.234 990.999 Q233.313 995.582 233.313 1004.33 Q233.313 1013.06 230.234 1017.67 Q227.178 1022.25 221.368 1022.25 Q215.558 1022.25 212.479 1017.67 Q209.424 1013.06 209.424 1004.33 Q209.424 995.582 212.479 990.999 Q215.558 986.392 221.368 986.392 Z" fill="#000000" fill-rule="evenodd" fill-opacity="1" /><path clip-path="url(#clip060)" d="M 0 0 M233.313 982.074 L243.45 982.074 L243.45 985.158 L233.313 985.158 L233.313 982.074 Z" fill="#000000" fill-rule="evenodd" fill-opacity="1" /><path clip-path="url(#clip060)" d="M 0 0 M267.449 978.613 Q264.891 978.613 263.386 980.362 Q261.9 982.111 261.9 985.158 Q261.9 988.186 263.386 989.954 Q264.891 991.703 267.449 991.703 Q270.006 991.703 271.492 989.954 Q272.997 988.186 272.997 985.158 Q272.997 982.111 271.492 980.362 Q270.006 978.613 267.449 978.613 M274.991 966.708 L274.991 970.168 Q273.561 969.491 272.094 969.134 Q270.646 968.776 269.217 968.776 Q265.455 968.776 263.461 971.316 Q261.487 973.855 261.204 978.989 Q262.314 977.353 263.988 976.488 Q265.662 975.604 267.674 975.604 Q271.906 975.604 274.351 978.18 Q276.815 980.738 276.815 985.158 Q276.815 989.484 274.257 992.098 Q271.699 994.712 267.449 994.712 Q262.577 994.712 260.001 990.988 Q257.424 987.246 257.424 980.155 Q257.424 973.497 260.584 969.548 Q263.744 965.579 269.066 965.579 Q270.495 965.579 271.944 965.861 Q273.411 966.143 274.991 966.708 Z" fill="#000000" fill-rule="evenodd" fill-opacity="1" /><path clip-path="url(#clip060)" d="M 0 0 M140.142 809.749 Q143.498 810.467 145.373 812.735 Q147.271 815.004 147.271 818.337 Q147.271 823.453 143.753 826.254 Q140.234 829.054 133.753 829.054 Q131.577 829.054 129.262 828.615 Q126.971 828.198 124.517 827.341 L124.517 822.828 Q126.461 823.962 128.776 824.541 Q131.091 825.119 133.614 825.119 Q138.012 825.119 140.304 823.383 Q142.619 821.647 142.619 818.337 Q142.619 815.281 140.466 813.568 Q138.336 811.832 134.517 811.832 L130.489 811.832 L130.489 807.99 L134.702 807.99 Q138.151 807.99 139.98 806.624 Q141.808 805.235 141.808 802.643 Q141.808 799.98 139.91 798.568 Q138.035 797.133 134.517 797.133 Q132.595 797.133 130.396 797.55 Q128.197 797.967 125.558 798.846 L125.558 794.68 Q128.221 793.939 130.535 793.568 Q132.873 793.198 134.933 793.198 Q140.257 793.198 143.359 795.629 Q146.461 798.036 146.461 802.156 Q146.461 805.027 144.818 807.017 Q143.174 808.985 140.142 809.749 Z" fill="#000000" fill-rule="evenodd" fill-opacity="1" /><path clip-path="url(#clip060)" d="M 0 0 M180.512 802.92 L169.933 813.545 L180.512 824.124 L177.757 826.925 L167.132 816.3 L156.507 826.925 L153.776 824.124 L164.331 813.545 L153.776 802.92 L156.507 800.119 L167.132 810.744 L177.757 800.119 L180.512 802.92 Z" fill="#000000" fill-rule="evenodd" fill-opacity="1" /><path clip-path="url(#clip060)" d="M 0 0 M186.391 824.448 L194.03 824.448 L194.03 798.082 L185.72 799.749 L185.72 795.49 L193.984 793.823 L198.66 793.823 L198.66 824.448 L206.299 824.448 L206.299 828.383 L186.391 828.383 L186.391 824.448 Z" fill="#000000" fill-rule="evenodd" fill-opacity="1" /><path clip-path="url(#clip060)" d="M 0 0 M221.368 796.902 Q217.757 796.902 215.928 800.467 Q214.123 804.008 214.123 811.138 Q214.123 818.244 215.928 821.809 Q217.757 825.351 221.368 825.351 Q225.002 825.351 226.808 821.809 Q228.637 818.244 228.637 811.138 Q228.637 804.008 226.808 800.467 Q225.002 796.902 221.368 796.902 M221.368 793.198 Q227.178 793.198 230.234 797.805 Q233.313 802.388 233.313 811.138 Q233.313 819.865 230.234 824.471 Q227.178 829.054 221.368 829.054 Q215.558 829.054 212.479 824.471 Q209.424 819.865 209.424 811.138 Q209.424 802.388 212.479 797.805 Q215.558 793.198 221.368 793.198 Z" fill="#000000" fill-rule="evenodd" fill-opacity="1" /><path clip-path="url(#clip060)" d="M 0 0 M233.313 788.879 L243.45 788.879 L243.45 791.964 L233.313 791.964 L233.313 788.879 Z" fill="#000000" fill-rule="evenodd" fill-opacity="1" /><path clip-path="url(#clip060)" d="M 0 0 M267.449 785.419 Q264.891 785.419 263.386 787.168 Q261.9 788.917 261.9 791.964 Q261.9 794.992 263.386 796.76 Q264.891 798.509 267.449 798.509 Q270.006 798.509 271.492 796.76 Q272.997 794.992 272.997 791.964 Q272.997 788.917 271.492 787.168 Q270.006 785.419 267.449 785.419 M274.991 773.513 L274.991 776.974 Q273.561 776.297 272.094 775.94 Q270.646 775.582 269.217 775.582 Q265.455 775.582 263.461 778.121 Q261.487 780.66 261.204 785.795 Q262.314 784.159 263.988 783.293 Q265.662 782.409 267.674 782.409 Q271.906 782.409 274.351 784.986 Q276.815 787.544 276.815 791.964 Q276.815 796.29 274.257 798.904 Q271.699 801.518 267.449 801.518 Q262.577 801.518 260.001 797.794 Q257.424 794.051 257.424 786.961 Q257.424 780.303 260.584 776.353 Q263.744 772.385 269.066 772.385 Q270.495 772.385 271.944 772.667 Q273.411 772.949 274.991 773.513 Z" fill="#000000" fill-rule="evenodd" fill-opacity="1" /><path clip-path="url(#clip060)" d="M 0 0 M137.688 604.703 L125.883 623.152 L137.688 623.152 L137.688 604.703 M136.461 600.629 L142.341 600.629 L142.341 623.152 L147.271 623.152 L147.271 627.041 L142.341 627.041 L142.341 635.189 L137.688 635.189 L137.688 627.041 L122.086 627.041 L122.086 622.527 L136.461 600.629 Z" fill="#000000" fill-rule="evenodd" fill-opacity="1" /><path clip-path="url(#clip060)" d="M 0 0 M180.512 609.726 L169.933 620.351 L180.512 630.93 L177.757 633.731 L167.132 623.106 L156.507 633.731 L153.776 630.93 L164.331 620.351 L153.776 609.726 L156.507 606.925 L167.132 617.55 L177.757 606.925 L180.512 609.726 Z" fill="#000000" fill-rule="evenodd" fill-opacity="1" /><path clip-path="url(#clip060)" d="M 0 0 M186.391 631.254 L194.03 631.254 L194.03 604.888 L185.72 606.555 L185.72 602.296 L193.984 600.629 L198.66 600.629 L198.66 631.254 L206.299 631.254 L206.299 635.189 L186.391 635.189 L186.391 631.254 Z" fill="#000000" fill-rule="evenodd" fill-opacity="1" /><path clip-path="url(#clip060)" d="M 0 0 M221.368 603.708 Q217.757 603.708 215.928 607.272 Q214.123 610.814 214.123 617.944 Q214.123 625.05 215.928 628.615 Q217.757 632.156 221.368 632.156 Q225.002 632.156 226.808 628.615 Q228.637 625.05 228.637 617.944 Q228.637 610.814 226.808 607.272 Q225.002 603.708 221.368 603.708 M221.368 600.004 Q227.178 600.004 230.234 604.61 Q233.313 609.194 233.313 617.944 Q233.313 626.67 230.234 631.277 Q227.178 635.86 221.368 635.86 Q215.558 635.86 212.479 631.277 Q209.424 626.67 209.424 617.944 Q209.424 609.194 212.479 604.61 Q215.558 600.004 221.368 600.004 Z" fill="#000000" fill-rule="evenodd" fill-opacity="1" /><path clip-path="url(#clip060)" d="M 0 0 M233.313 595.685 L243.45 595.685 L243.45 598.77 L233.313 598.77 L233.313 595.685 Z" fill="#000000" fill-rule="evenodd" fill-opacity="1" /><path clip-path="url(#clip060)" d="M 0 0 M267.449 592.224 Q264.891 592.224 263.386 593.974 Q261.9 595.723 261.9 598.77 Q261.9 601.798 263.386 603.566 Q264.891 605.315 267.449 605.315 Q270.006 605.315 271.492 603.566 Q272.997 601.798 272.997 598.77 Q272.997 595.723 271.492 593.974 Q270.006 592.224 267.449 592.224 M274.991 580.319 L274.991 583.78 Q273.561 583.103 272.094 582.745 Q270.646 582.388 269.217 582.388 Q265.455 582.388 263.461 584.927 Q261.487 587.466 261.204 592.601 Q262.314 590.964 263.988 590.099 Q265.662 589.215 267.674 589.215 Q271.906 589.215 274.351 591.792 Q276.815 594.35 276.815 598.77 Q276.815 603.095 274.257 605.71 Q271.699 608.324 267.449 608.324 Q262.577 608.324 260.001 604.6 Q257.424 600.857 257.424 593.767 Q257.424 587.109 260.584 583.159 Q263.744 579.191 269.066 579.191 Q270.495 579.191 271.944 579.473 Q273.411 579.755 274.991 580.319 Z" fill="#000000" fill-rule="evenodd" fill-opacity="1" /><path clip-path="url(#clip060)" d="M 0 0 M126.369 407.435 L144.725 407.435 L144.725 411.37 L130.651 411.37 L130.651 419.842 Q131.67 419.495 132.688 419.333 Q133.707 419.148 134.725 419.148 Q140.512 419.148 143.892 422.319 Q147.271 425.49 147.271 430.907 Q147.271 436.485 143.799 439.587 Q140.327 442.666 134.008 442.666 Q131.832 442.666 129.563 442.296 Q127.318 441.925 124.91 441.184 L124.91 436.485 Q126.994 437.62 129.216 438.175 Q131.438 438.731 133.915 438.731 Q137.92 438.731 140.257 436.624 Q142.595 434.518 142.595 430.907 Q142.595 427.296 140.257 425.189 Q137.92 423.083 133.915 423.083 Q132.04 423.083 130.165 423.499 Q128.313 423.916 126.369 424.796 L126.369 407.435 Z" fill="#000000" fill-rule="evenodd" fill-opacity="1" /><path clip-path="url(#clip060)" d="M 0 0 M180.512 416.532 L169.933 427.157 L180.512 437.735 L177.757 440.536 L167.132 429.911 L156.507 440.536 L153.776 437.735 L164.331 427.157 L153.776 416.532 L156.507 413.731 L167.132 424.356 L177.757 413.731 L180.512 416.532 Z" fill="#000000" fill-rule="evenodd" fill-opacity="1" /><path clip-path="url(#clip060)" d="M 0 0 M186.391 438.059 L194.03 438.059 L194.03 411.694 L185.72 413.361 L185.72 409.101 L193.984 407.435 L198.66 407.435 L198.66 438.059 L206.299 438.059 L206.299 441.995 L186.391 441.995 L186.391 438.059 Z" fill="#000000" fill-rule="evenodd" fill-opacity="1" /><path clip-path="url(#clip060)" d="M 0 0 M221.368 410.513 Q217.757 410.513 215.928 414.078 Q214.123 417.62 214.123 424.749 Q214.123 431.856 215.928 435.421 Q217.757 438.962 221.368 438.962 Q225.002 438.962 226.808 435.421 Q228.637 431.856 228.637 424.749 Q228.637 417.62 226.808 414.078 Q225.002 410.513 221.368 410.513 M221.368 406.81 Q227.178 406.81 230.234 411.416 Q233.313 415.999 233.313 424.749 Q233.313 433.476 230.234 438.083 Q227.178 442.666 221.368 442.666 Q215.558 442.666 212.479 438.083 Q209.424 433.476 209.424 424.749 Q209.424 415.999 212.479 411.416 Q215.558 406.81 221.368 406.81 Z" fill="#000000" fill-rule="evenodd" fill-opacity="1" /><path clip-path="url(#clip060)" d="M 0 0 M233.313 402.491 L243.45 402.491 L243.45 405.575 L233.313 405.575 L233.313 402.491 Z" fill="#000000" fill-rule="evenodd" fill-opacity="1" /><path clip-path="url(#clip060)" d="M 0 0 M267.449 399.03 Q264.891 399.03 263.386 400.779 Q261.9 402.528 261.9 405.575 Q261.9 408.603 263.386 410.371 Q264.891 412.12 267.449 412.12 Q270.006 412.12 271.492 410.371 Q272.997 408.603 272.997 405.575 Q272.997 402.528 271.492 400.779 Q270.006 399.03 267.449 399.03 M274.991 387.125 L274.991 390.586 Q273.561 389.908 272.094 389.551 Q270.646 389.194 269.217 389.194 Q265.455 389.194 263.461 391.733 Q261.487 394.272 261.204 399.406 Q262.314 397.77 263.988 396.905 Q265.662 396.021 267.674 396.021 Q271.906 396.021 274.351 398.598 Q276.815 401.155 276.815 405.575 Q276.815 409.901 274.257 412.515 Q271.699 415.13 267.449 415.13 Q262.577 415.13 260.001 411.406 Q257.424 407.663 257.424 400.572 Q257.424 393.914 260.584 389.965 Q263.744 385.996 269.066 385.996 Q270.495 385.996 271.944 386.279 Q273.411 386.561 274.991 387.125 Z" fill="#000000" fill-rule="evenodd" fill-opacity="1" /><path clip-path="url(#clip060)" d="M 0 0 M135.744 229.657 Q132.595 229.657 130.744 231.81 Q128.915 233.963 128.915 237.712 Q128.915 241.439 130.744 243.615 Q132.595 245.768 135.744 245.768 Q138.892 245.768 140.72 243.615 Q142.572 241.439 142.572 237.712 Q142.572 233.963 140.72 231.81 Q138.892 229.657 135.744 229.657 M145.026 215.004 L145.026 219.264 Q143.267 218.43 141.461 217.99 Q139.679 217.551 137.92 217.551 Q133.29 217.551 130.836 220.676 Q128.406 223.801 128.058 230.12 Q129.424 228.106 131.484 227.041 Q133.545 225.953 136.021 225.953 Q141.23 225.953 144.239 229.125 Q147.271 232.273 147.271 237.712 Q147.271 243.037 144.123 246.254 Q140.975 249.472 135.744 249.472 Q129.748 249.472 126.577 244.888 Q123.406 240.282 123.406 231.555 Q123.406 223.361 127.295 218.5 Q131.183 213.615 137.734 213.615 Q139.494 213.615 141.276 213.963 Q143.082 214.31 145.026 215.004 Z" fill="#000000" fill-rule="evenodd" fill-opacity="1" /><path clip-path="url(#clip060)" d="M 0 0 M180.512 223.338 L169.933 233.963 L180.512 244.541 L177.757 247.342 L167.132 236.717 L156.507 247.342 L153.776 244.541 L164.331 233.963 L153.776 223.338 L156.507 220.537 L167.132 231.162 L177.757 220.537 L180.512 223.338 Z" fill="#000000" fill-rule="evenodd" fill-opacity="1" /><path clip-path="url(#clip060)" d="M 0 0 M186.391 244.865 L194.03 244.865 L194.03 218.5 L185.72 220.166 L185.72 215.907 L193.984 214.24 L198.66 214.24 L198.66 244.865 L206.299 244.865 L206.299 248.8 L186.391 248.8 L186.391 244.865 Z" fill="#000000" fill-rule="evenodd" fill-opacity="1" /><path clip-path="url(#clip060)" d="M 0 0 M221.368 217.319 Q217.757 217.319 215.928 220.884 Q214.123 224.426 214.123 231.555 Q214.123 238.662 215.928 242.226 Q217.757 245.768 221.368 245.768 Q225.002 245.768 226.808 242.226 Q228.637 238.662 228.637 231.555 Q228.637 224.426 226.808 220.884 Q225.002 217.319 221.368 217.319 M221.368 213.615 Q227.178 213.615 230.234 218.222 Q233.313 222.805 233.313 231.555 Q233.313 240.282 230.234 244.888 Q227.178 249.472 221.368 249.472 Q215.558 249.472 212.479 244.888 Q209.424 240.282 209.424 231.555 Q209.424 222.805 212.479 218.222 Q215.558 213.615 221.368 213.615 Z" fill="#000000" fill-rule="evenodd" fill-opacity="1" /><path clip-path="url(#clip060)" d="M 0 0 M233.313 209.297 L243.45 209.297 L243.45 212.381 L233.313 212.381 L233.313 209.297 Z" fill="#000000" fill-rule="evenodd" fill-opacity="1" /><path clip-path="url(#clip060)" d="M 0 0 M267.449 205.836 Q264.891 205.836 263.386 207.585 Q261.9 209.334 261.9 212.381 Q261.9 215.409 263.386 217.177 Q264.891 218.926 267.449 218.926 Q270.006 218.926 271.492 217.177 Q272.997 215.409 272.997 212.381 Q272.997 209.334 271.492 207.585 Q270.006 205.836 267.449 205.836 M274.991 193.931 L274.991 197.391 Q273.561 196.714 272.094 196.357 Q270.646 195.999 269.217 195.999 Q265.455 195.999 263.461 198.539 Q261.487 201.078 261.204 206.212 Q262.314 204.576 263.988 203.711 Q265.662 202.827 267.674 202.827 Q271.906 202.827 274.351 205.403 Q276.815 207.961 276.815 212.381 Q276.815 216.707 274.257 219.321 Q271.699 221.935 267.449 221.935 Q262.577 221.935 260.001 218.211 Q257.424 214.469 257.424 207.378 Q257.424 200.72 260.584 196.771 Q263.744 192.802 269.066 192.802 Q270.495 192.802 271.944 193.084 Q273.411 193.366 274.991 193.931 Z" fill="#000000" fill-rule="evenodd" fill-opacity="1" /><path clip-path="url(#clip060)" d="M 0 0 M1048.68 1538.25 Q1048.68 1544.71 1051.33 1548.4 Q1054 1552.07 1058.65 1552.07 Q1063.29 1552.07 1065.97 1548.4 Q1068.64 1544.71 1068.64 1538.25 Q1068.64 1531.79 1065.97 1528.13 Q1063.29 1524.44 1058.65 1524.44 Q1054 1524.44 1051.33 1528.13 Q1048.68 1531.79 1048.68 1538.25 M1068.64 1550.7 Q1066.79 1553.88 1063.96 1555.44 Q1061.16 1556.97 1057.21 1556.97 Q1050.75 1556.97 1046.68 1551.81 Q1042.64 1546.65 1042.64 1538.25 Q1042.64 1529.85 1046.68 1524.69 Q1050.75 1519.54 1057.21 1519.54 Q1061.16 1519.54 1063.96 1521.1 Q1066.79 1522.62 1068.64 1525.81 L1068.64 1520.4 L1074.5 1520.4 L1074.5 1569.6 L1068.64 1569.6 L1068.64 1550.7 Z" fill="#000000" fill-rule="evenodd" fill-opacity="1" /><path clip-path="url(#clip060)" d="M 0 0 M1107.73 1566.87 L1107.73 1571.42 L1073.86 1571.42 L1073.86 1566.87 L1107.73 1566.87 Z" fill="#000000" fill-rule="evenodd" fill-opacity="1" /><path clip-path="url(#clip060)" d="M 0 0 M1113.87 1506.52 L1119.72 1506.52 L1119.72 1556.04 L1113.87 1556.04 L1113.87 1506.52 Z" fill="#000000" fill-rule="evenodd" fill-opacity="1" /><path clip-path="url(#clip060)" d="M 0 0 M1125.87 1520.4 L1131.72 1520.4 L1131.72 1556.04 L1125.87 1556.04 L1125.87 1520.4 M1125.87 1506.52 L1131.72 1506.52 L1131.72 1513.93 L1125.87 1513.93 L1125.87 1506.52 Z" fill="#000000" fill-rule="evenodd" fill-opacity="1" /><path clip-path="url(#clip060)" d="M 0 0 M1141.37 1538.25 Q1141.37 1544.71 1144.01 1548.4 Q1146.68 1552.07 1151.33 1552.07 Q1155.98 1552.07 1158.65 1548.4 Q1161.32 1544.71 1161.32 1538.25 Q1161.32 1531.79 1158.65 1528.13 Q1155.98 1524.44 1151.33 1524.44 Q1146.68 1524.44 1144.01 1528.13 Q1141.37 1531.79 1141.37 1538.25 M1161.32 1550.7 Q1159.48 1553.88 1156.65 1555.44 Q1153.85 1556.97 1149.9 1556.97 Q1143.44 1556.97 1139.36 1551.81 Q1135.32 1546.65 1135.32 1538.25 Q1135.32 1529.85 1139.36 1524.69 Q1143.44 1519.54 1149.9 1519.54 Q1153.85 1519.54 1156.65 1521.1 Q1159.48 1522.62 1161.32 1525.81 L1161.32 1520.4 L1167.18 1520.4 L1167.18 1569.6 L1161.32 1569.6 L1161.32 1550.7 Z" fill="#000000" fill-rule="evenodd" fill-opacity="1" /><path clip-path="url(#clip060)" d="M 0 0 M1207.86 1524.5 Q1203.15 1524.5 1200.41 1528.19 Q1197.67 1531.85 1197.67 1538.25 Q1197.67 1544.65 1200.38 1548.34 Q1203.12 1552 1207.86 1552 Q1212.54 1552 1215.27 1548.31 Q1218.01 1544.62 1218.01 1538.25 Q1218.01 1531.92 1215.27 1528.23 Q1212.54 1524.5 1207.86 1524.5 M1207.86 1519.54 Q1215.5 1519.54 1219.86 1524.5 Q1224.22 1529.47 1224.22 1538.25 Q1224.22 1547 1219.86 1552 Q1215.5 1556.97 1207.86 1556.97 Q1200.19 1556.97 1195.83 1552 Q1191.5 1547 1191.5 1538.25 Q1191.5 1529.47 1195.83 1524.5 Q1200.19 1519.54 1207.86 1519.54 Z" fill="#000000" fill-rule="evenodd" fill-opacity="1" /><path clip-path="url(#clip060)" d="M 0 0 M1251.02 1525.87 Q1250.03 1525.3 1248.85 1525.04 Q1247.71 1524.76 1246.31 1524.76 Q1241.34 1524.76 1238.67 1528 Q1236.03 1531.22 1236.03 1537.27 L1236.03 1556.04 L1230.14 1556.04 L1230.14 1520.4 L1236.03 1520.4 L1236.03 1525.93 Q1237.87 1522.69 1240.83 1521.13 Q1243.79 1519.54 1248.03 1519.54 Q1248.63 1519.54 1249.36 1519.63 Q1250.09 1519.7 1250.99 1519.85 L1251.02 1525.87 Z" fill="#000000" fill-rule="evenodd" fill-opacity="1" /><path clip-path="url(#clip060)" d="M 0 0 M1281.38 1538.25 Q1281.38 1544.71 1284.02 1548.4 Q1286.7 1552.07 1291.34 1552.07 Q1295.99 1552.07 1298.66 1548.4 Q1301.34 1544.71 1301.34 1538.25 Q1301.34 1531.79 1298.66 1528.13 Q1295.99 1524.44 1291.34 1524.44 Q1286.7 1524.44 1284.02 1528.13 Q1281.38 1531.79 1281.38 1538.25 M1301.34 1550.7 Q1299.49 1553.88 1296.66 1555.44 Q1293.86 1556.97 1289.91 1556.97 Q1283.45 1556.97 1279.38 1551.81 Q1275.33 1546.65 1275.33 1538.25 Q1275.33 1529.85 1279.38 1524.69 Q1283.45 1519.54 1289.91 1519.54 Q1293.86 1519.54 1296.66 1521.1 Q1299.49 1522.62 1301.34 1525.81 L1301.34 1520.4 L1307.19 1520.4 L1307.19 1569.6 L1301.34 1569.6 L1301.34 1550.7 Z" fill="#000000" fill-rule="evenodd" fill-opacity="1" /><path clip-path="url(#clip060)" d="M 0 0 M1340.42 1566.87 L1340.42 1571.42 L1306.56 1571.42 L1306.56 1566.87 L1340.42 1566.87 Z" fill="#000000" fill-rule="evenodd" fill-opacity="1" /><path clip-path="url(#clip060)" d="M 0 0 M1346.57 1520.4 L1352.42 1520.4 L1352.42 1556.04 L1346.57 1556.04 L1346.57 1520.4 M1346.57 1506.52 L1352.42 1506.52 L1352.42 1513.93 L1346.57 1513.93 L1346.57 1506.52 Z" fill="#000000" fill-rule="evenodd" fill-opacity="1" /><path clip-path="url(#clip060)" d="M 0 0 M1384.22 1521.76 L1384.22 1527.24 Q1381.74 1525.87 1379.22 1525.2 Q1376.74 1524.5 1374.19 1524.5 Q1368.5 1524.5 1365.35 1528.13 Q1362.19 1531.73 1362.19 1538.25 Q1362.19 1544.78 1365.35 1548.4 Q1368.5 1552 1374.19 1552 Q1376.74 1552 1379.22 1551.33 Q1381.74 1550.63 1384.22 1549.26 L1384.22 1554.68 Q1381.77 1555.82 1379.13 1556.39 Q1376.52 1556.97 1373.56 1556.97 Q1365.5 1556.97 1360.76 1551.91 Q1356.02 1546.85 1356.02 1538.25 Q1356.02 1529.53 1360.79 1524.53 Q1365.6 1519.54 1373.94 1519.54 Q1376.64 1519.54 1379.22 1520.11 Q1381.8 1520.65 1384.22 1521.76 Z" fill="#000000" fill-rule="evenodd" fill-opacity="1" /><path clip-path="url(#clip060)" d="M 0 0 M1420.85 1536.76 L1420.85 1539.62 L1393.93 1539.62 Q1394.31 1545.67 1397.56 1548.85 Q1400.83 1552 1406.66 1552 Q1410.03 1552 1413.18 1551.17 Q1416.37 1550.35 1419.49 1548.69 L1419.49 1554.23 Q1416.33 1555.57 1413.02 1556.27 Q1409.71 1556.97 1406.31 1556.97 Q1397.78 1556.97 1392.78 1552 Q1387.82 1547.04 1387.82 1538.57 Q1387.82 1529.82 1392.53 1524.69 Q1397.27 1519.54 1405.29 1519.54 Q1412.48 1519.54 1416.65 1524.18 Q1420.85 1528.8 1420.85 1536.76 M1415 1535.04 Q1414.93 1530.23 1412.29 1527.37 Q1409.68 1524.5 1405.35 1524.5 Q1400.45 1524.5 1397.49 1527.27 Q1394.56 1530.04 1394.12 1535.07 L1415 1535.04 Z" fill="#000000" fill-rule="evenodd" fill-opacity="1" /><path clip-path="url(#clip060)" d="M 0 0 M1447.18 1506.52 L1460.67 1506.52 L1460.67 1511.07 L1453.03 1511.07 L1453.03 1560.09 L1460.67 1560.09 L1460.67 1564.64 L1447.18 1564.64 L1447.18 1506.52 Z" fill="#000000" fill-rule="evenodd" fill-opacity="1" /><path clip-path="url(#clip060)" d="M 0 0 M1490.27 1537.81 Q1490.27 1531.44 1487.63 1527.94 Q1485.02 1524.44 1480.28 1524.44 Q1475.57 1524.44 1472.93 1527.94 Q1470.32 1531.44 1470.32 1537.81 Q1470.32 1544.14 1472.93 1547.64 Q1475.57 1551.14 1480.28 1551.14 Q1485.02 1551.14 1487.63 1547.64 Q1490.27 1544.14 1490.27 1537.81 M1496.13 1551.62 Q1496.13 1560.72 1492.09 1565.15 Q1488.04 1569.6 1479.71 1569.6 Q1476.62 1569.6 1473.88 1569.13 Q1471.14 1568.68 1468.57 1567.72 L1468.57 1562.03 Q1471.14 1563.43 1473.66 1564.1 Q1476.17 1564.76 1478.78 1564.76 Q1484.54 1564.76 1487.41 1561.74 Q1490.27 1558.75 1490.27 1552.67 L1490.27 1549.77 Q1488.46 1552.92 1485.63 1554.48 Q1482.79 1556.04 1478.85 1556.04 Q1472.29 1556.04 1468.28 1551.05 Q1464.27 1546.05 1464.27 1537.81 Q1464.27 1529.53 1468.28 1524.53 Q1472.29 1519.54 1478.85 1519.54 Q1482.79 1519.54 1485.63 1521.1 Q1488.46 1522.66 1490.27 1525.81 L1490.27 1520.4 L1496.13 1520.4 L1496.13 1551.62 Z" fill="#000000" fill-rule="evenodd" fill-opacity="1" /><path clip-path="url(#clip060)" d="M 0 0 M1512.68 1508.52 L1518.09 1508.52 L1501.54 1562.09 L1496.13 1562.09 L1512.68 1508.52 Z" fill="#000000" fill-rule="evenodd" fill-opacity="1" /><path clip-path="url(#clip060)" d="M 0 0 M1524.01 1506.52 L1529.9 1506.52 L1529.9 1535.77 L1547.37 1520.4 L1554.85 1520.4 L1535.95 1537.07 L1555.65 1556.04 L1548.01 1556.04 L1529.9 1538.63 L1529.9 1556.04 L1524.01 1556.04 L1524.01 1506.52 Z" fill="#000000" fill-rule="evenodd" fill-opacity="1" /><path clip-path="url(#clip060)" d="M 0 0 M1585.25 1537.81 Q1585.25 1531.44 1582.61 1527.94 Q1580 1524.44 1575.25 1524.44 Q1570.54 1524.44 1567.9 1527.94 Q1565.29 1531.44 1565.29 1537.81 Q1565.29 1544.14 1567.9 1547.64 Q1570.54 1551.14 1575.25 1551.14 Q1580 1551.14 1582.61 1547.64 Q1585.25 1544.14 1585.25 1537.81 M1591.11 1551.62 Q1591.11 1560.72 1587.06 1565.15 Q1583.02 1569.6 1574.68 1569.6 Q1571.59 1569.6 1568.86 1569.13 Q1566.12 1568.68 1563.54 1567.72 L1563.54 1562.03 Q1566.12 1563.43 1568.63 1564.1 Q1571.15 1564.76 1573.76 1564.76 Q1579.52 1564.76 1582.38 1561.74 Q1585.25 1558.75 1585.25 1552.67 L1585.25 1549.77 Q1583.43 1552.92 1580.6 1554.48 Q1577.77 1556.04 1573.82 1556.04 Q1567.27 1556.04 1563.26 1551.05 Q1559.25 1546.05 1559.25 1537.81 Q1559.25 1529.53 1563.26 1524.53 Q1567.27 1519.54 1573.82 1519.54 Q1577.77 1519.54 1580.6 1521.1 Q1583.43 1522.66 1585.25 1525.81 L1585.25 1520.4 L1591.11 1520.4 L1591.11 1551.62 Z" fill="#000000" fill-rule="evenodd" fill-opacity="1" /><path clip-path="url(#clip060)" d="M 0 0 M1610.93 1506.52 L1610.93 1564.64 L1597.44 1564.64 L1597.44 1560.09 L1605.05 1560.09 L1605.05 1511.07 L1597.44 1511.07 L1597.44 1506.52 L1610.93 1506.52 Z" fill="#000000" fill-rule="evenodd" fill-opacity="1" /><path clip-path="url(#clip060)" d="M 0 0 M70.0847 1084.12 Q70.0847 1091.21 71.7079 1093.95 Q73.3312 1096.69 77.2461 1096.69 Q80.3653 1096.69 82.2114 1094.65 Q84.0256 1092.58 84.0256 1089.05 Q84.0256 1084.18 80.5881 1081.25 Q77.1188 1078.29 71.3897 1078.29 L70.0847 1078.29 L70.0847 1084.12 M67.6657 1072.44 L88.0042 1072.44 L88.0042 1078.29 L82.5933 1078.29 Q85.8398 1080.3 87.3994 1083.29 Q88.9272 1086.28 88.9272 1090.61 Q88.9272 1096.08 85.8716 1099.33 Q82.7843 1102.55 77.6281 1102.55 Q71.6125 1102.55 68.5569 1098.53 Q65.5014 1094.49 65.5014 1086.5 L65.5014 1078.29 L64.9285 1078.29 Q60.8862 1078.29 58.6901 1080.97 Q56.4621 1083.61 56.4621 1088.41 Q56.4621 1091.47 57.1941 1094.37 Q57.9262 1097.26 59.3903 1099.94 L53.9795 1099.94 Q52.7381 1096.72 52.1334 1093.7 Q51.4968 1090.67 51.4968 1087.81 Q51.4968 1080.07 55.5072 1076.25 Q59.5176 1072.44 67.6657 1072.44 Z" fill="#000000" fill-rule="evenodd" fill-opacity="1" /><path clip-path="url(#clip060)" d="M 0 0 M73.9359 1066.9 L52.3562 1066.9 L52.3562 1061.04 L73.7131 1061.04 Q78.7739 1061.04 81.3202 1059.07 Q83.8346 1057.09 83.8346 1053.15 Q83.8346 1048.4 80.8109 1045.67 Q77.7872 1042.9 72.5673 1042.9 L52.3562 1042.9 L52.3562 1037.04 L88.0042 1037.04 L88.0042 1042.9 L82.5296 1042.9 Q85.7762 1045.03 87.3676 1047.86 Q88.9272 1050.66 88.9272 1054.39 Q88.9272 1060.53 85.1078 1063.71 Q81.2883 1066.9 73.9359 1066.9 M51.4968 1052.16 L51.4968 1052.16 Z" fill="#000000" fill-rule="evenodd" fill-opacity="1" /><path clip-path="url(#clip060)" d="M 0 0 M42.2347 1025.11 L52.3562 1025.11 L52.3562 1013.04 L56.9077 1013.04 L56.9077 1025.11 L76.2594 1025.11 Q80.6199 1025.11 81.8613 1023.93 Q83.1026 1022.72 83.1026 1019.06 L83.1026 1013.04 L88.0042 1013.04 L88.0042 1019.06 Q88.0042 1025.84 85.4897 1028.42 Q82.9434 1030.99 76.2594 1030.99 L56.9077 1030.99 L56.9077 1035.29 L52.3562 1035.29 L52.3562 1030.99 L42.2347 1030.99 L42.2347 1025.11 Z" fill="#000000" fill-rule="evenodd" fill-opacity="1" /><path clip-path="url(#clip060)" d="M 0 0 M56.4621 993.087 Q56.4621 997.797 60.1542 1000.53 Q63.8145 1003.27 70.212 1003.27 Q76.6095 1003.27 80.3017 1000.57 Q83.9619 997.829 83.9619 993.087 Q83.9619 988.408 80.2698 985.671 Q76.5777 982.933 70.212 982.933 Q63.8781 982.933 60.186 985.671 Q56.4621 988.408 56.4621 993.087 M51.4968 993.087 Q51.4968 985.448 56.4621 981.087 Q61.4273 976.727 70.212 976.727 Q78.9649 976.727 83.9619 981.087 Q88.9272 985.448 88.9272 993.087 Q88.9272 1000.76 83.9619 1005.12 Q78.9649 1009.45 70.212 1009.45 Q61.4273 1009.45 56.4621 1005.12 Q51.4968 1000.76 51.4968 993.087 Z" fill="#000000" fill-rule="evenodd" fill-opacity="1" /><path clip-path="url(#clip060)" d="M 0 0 M53.7248 944.93 L59.1993 944.93 Q57.8307 947.413 57.1623 949.927 Q56.4621 952.41 56.4621 954.956 Q56.4621 960.653 60.0905 963.804 Q63.6872 966.956 70.212 966.956 Q76.7369 966.956 80.3653 963.804 Q83.9619 960.653 83.9619 954.956 Q83.9619 952.41 83.2935 949.927 Q82.5933 947.413 81.2247 944.93 L86.6355 944.93 Q87.7814 947.381 88.3543 950.023 Q88.9272 952.633 88.9272 955.593 Q88.9272 963.645 83.8664 968.388 Q78.8057 973.13 70.212 973.13 Q61.491 973.13 56.4939 968.356 Q51.4968 963.55 51.4968 955.211 Q51.4968 952.505 52.0697 949.927 Q52.6108 947.349 53.7248 944.93 Z" fill="#000000" fill-rule="evenodd" fill-opacity="1" /><path clip-path="url(#clip060)" d="M 0 0 M56.4621 924.974 Q56.4621 929.684 60.1542 932.422 Q63.8145 935.159 70.212 935.159 Q76.6095 935.159 80.3017 932.453 Q83.9619 929.716 83.9619 924.974 Q83.9619 920.295 80.2698 917.558 Q76.5777 914.82 70.212 914.82 Q63.8781 914.82 60.186 917.558 Q56.4621 920.295 56.4621 924.974 M51.4968 924.974 Q51.4968 917.335 56.4621 912.974 Q61.4273 908.614 70.212 908.614 Q78.9649 908.614 83.9619 912.974 Q88.9272 917.335 88.9272 924.974 Q88.9272 932.644 83.9619 937.005 Q78.9649 941.334 70.212 941.334 Q61.4273 941.334 56.4621 937.005 Q51.4968 932.644 51.4968 924.974 Z" fill="#000000" fill-rule="evenodd" fill-opacity="1" /><path clip-path="url(#clip060)" d="M 0 0 M66.4881 872.839 L88.0042 872.839 L88.0042 878.695 L66.679 878.695 Q61.6183 878.695 59.1038 880.668 Q56.5894 882.642 56.5894 886.588 Q56.5894 891.331 59.6131 894.068 Q62.6368 896.805 67.8567 896.805 L88.0042 896.805 L88.0042 902.694 L52.3562 902.694 L52.3562 896.805 L57.8944 896.805 Q54.6797 894.705 53.0883 891.872 Q51.4968 889.007 51.4968 885.284 Q51.4968 879.141 55.3163 875.99 Q59.1038 872.839 66.4881 872.839 Z" fill="#000000" fill-rule="evenodd" fill-opacity="1" /><path clip-path="url(#clip060)" d="M 0 0 M52.3562 870.897 L52.3562 864.69 L82.275 853.55 L52.3562 842.41 L52.3562 836.204 L88.0042 849.572 L88.0042 857.529 L52.3562 870.897 Z" fill="#000000" fill-rule="evenodd" fill-opacity="1" /><path clip-path="url(#clip060)" d="M 0 0 M68.7161 799.569 L71.5806 799.569 L71.5806 826.496 Q77.6281 826.114 80.8109 822.868 Q83.9619 819.589 83.9619 813.765 Q83.9619 810.391 83.1344 807.24 Q82.3069 804.057 80.6518 800.938 L86.1899 800.938 Q87.5267 804.089 88.227 807.399 Q88.9272 810.709 88.9272 814.115 Q88.9272 822.645 83.9619 827.642 Q78.9967 832.607 70.5303 832.607 Q61.7774 832.607 56.6531 827.897 Q51.4968 823.154 51.4968 815.133 Q51.4968 807.94 56.1438 803.771 Q60.7589 799.569 68.7161 799.569 M66.9973 805.426 Q62.1912 805.489 59.3266 808.131 Q56.4621 810.741 56.4621 815.07 Q56.4621 819.971 59.2312 822.931 Q62.0002 825.86 67.0292 826.305 L66.9973 805.426 Z" fill="#000000" fill-rule="evenodd" fill-opacity="1" /><path clip-path="url(#clip060)" d="M 0 0 M57.8307 772.77 Q57.2578 773.756 57.0032 774.934 Q56.7167 776.08 56.7167 777.48 Q56.7167 782.446 59.9632 785.119 Q63.1779 787.761 69.2253 787.761 L88.0042 787.761 L88.0042 793.649 L52.3562 793.649 L52.3562 787.761 L57.8944 787.761 Q54.6479 785.915 53.0883 782.955 Q51.4968 779.995 51.4968 775.762 Q51.4968 775.157 51.5923 774.425 Q51.656 773.693 51.8151 772.801 L57.8307 772.77 Z" fill="#000000" fill-rule="evenodd" fill-opacity="1" /><path clip-path="url(#clip060)" d="M 0 0 M53.4065 743.901 L58.9447 743.901 Q57.6716 746.384 57.035 749.057 Q56.3984 751.731 56.3984 754.596 Q56.3984 758.956 57.7352 761.152 Q59.072 763.317 61.7456 763.317 Q63.7826 763.317 64.9603 761.757 Q66.1061 760.197 67.1565 755.487 L67.6021 753.482 Q68.9389 747.243 71.3897 744.633 Q73.8086 741.991 78.1691 741.991 Q83.1344 741.991 86.0308 745.938 Q88.9272 749.853 88.9272 756.728 Q88.9272 759.593 88.3543 762.712 Q87.8132 765.799 86.6992 769.237 L80.6518 769.237 Q82.3387 765.99 83.198 762.839 Q84.0256 759.688 84.0256 756.601 Q84.0256 752.463 82.6251 750.235 Q81.1929 748.007 78.6147 748.007 Q76.2276 748.007 74.9545 749.63 Q73.6813 751.222 72.5037 756.664 L72.0262 758.701 Q70.8804 764.144 68.5251 766.563 Q66.138 768.982 62.0002 768.982 Q56.9713 768.982 54.2341 765.417 Q51.4968 761.852 51.4968 755.296 Q51.4968 752.049 51.9743 749.185 Q52.4517 746.32 53.4065 743.901 Z" fill="#000000" fill-rule="evenodd" fill-opacity="1" /><path clip-path="url(#clip060)" d="M 0 0 M52.3562 735.849 L52.3562 729.992 L88.0042 729.992 L88.0042 735.849 L52.3562 735.849 M38.479 735.849 L38.479 729.992 L45.895 729.992 L45.895 735.849 L38.479 735.849 Z" fill="#000000" fill-rule="evenodd" fill-opacity="1" /><path clip-path="url(#clip060)" d="M 0 0 M56.4621 710.036 Q56.4621 714.746 60.1542 717.483 Q63.8145 720.221 70.212 720.221 Q76.6095 720.221 80.3017 717.515 Q83.9619 714.778 83.9619 710.036 Q83.9619 705.357 80.2698 702.62 Q76.5777 699.882 70.212 699.882 Q63.8781 699.882 60.186 702.62 Q56.4621 705.357 56.4621 710.036 M51.4968 710.036 Q51.4968 702.397 56.4621 698.036 Q61.4273 693.676 70.212 693.676 Q78.9649 693.676 83.9619 698.036 Q88.9272 702.397 88.9272 710.036 Q88.9272 717.706 83.9619 722.067 Q78.9649 726.395 70.212 726.395 Q61.4273 726.395 56.4621 722.067 Q51.4968 717.706 51.4968 710.036 Z" fill="#000000" fill-rule="evenodd" fill-opacity="1" /><path clip-path="url(#clip060)" d="M 0 0 M66.4881 657.9 L88.0042 657.9 L88.0042 663.757 L66.679 663.757 Q61.6183 663.757 59.1038 665.73 Q56.5894 667.704 56.5894 671.65 Q56.5894 676.393 59.6131 679.13 Q62.6368 681.867 67.8567 681.867 L88.0042 681.867 L88.0042 687.756 L52.3562 687.756 L52.3562 681.867 L57.8944 681.867 Q54.6797 679.767 53.0883 676.934 Q51.4968 674.069 51.4968 670.345 Q51.4968 664.203 55.3163 661.051 Q59.1038 657.9 66.4881 657.9 Z" fill="#000000" fill-rule="evenodd" fill-opacity="1" /><path clip-path="url(#clip060)" d="M 0 0 M57.8307 610.38 Q57.2578 611.367 57.0032 612.545 Q56.7167 613.691 56.7167 615.091 Q56.7167 620.056 59.9632 622.73 Q63.1779 625.372 69.2253 625.372 L88.0042 625.372 L88.0042 631.26 L52.3562 631.26 L52.3562 625.372 L57.8944 625.372 Q54.6479 623.526 53.0883 620.566 Q51.4968 617.606 51.4968 613.372 Q51.4968 612.768 51.5923 612.036 Q51.656 611.303 51.8151 610.412 L57.8307 610.38 Z" fill="#000000" fill-rule="evenodd" fill-opacity="1" /><path clip-path="url(#clip060)" d="M 0 0 M70.0847 588.037 Q70.0847 595.135 71.7079 597.872 Q73.3312 600.609 77.2461 600.609 Q80.3653 600.609 82.2114 598.572 Q84.0256 596.503 84.0256 592.97 Q84.0256 588.1 80.5881 585.172 Q77.1188 582.212 71.3897 582.212 L70.0847 582.212 L70.0847 588.037 M67.6657 576.356 L88.0042 576.356 L88.0042 582.212 L82.5933 582.212 Q85.8398 584.217 87.3994 587.209 Q88.9272 590.201 88.9272 594.53 Q88.9272 600.004 85.8716 603.251 Q82.7843 606.466 77.6281 606.466 Q71.6125 606.466 68.5569 602.455 Q65.5014 598.413 65.5014 590.424 L65.5014 582.212 L64.9285 582.212 Q60.8862 582.212 58.6901 584.886 Q56.4621 587.528 56.4621 592.334 Q56.4621 595.389 57.1941 598.286 Q57.9262 601.182 59.3903 603.856 L53.9795 603.856 Q52.7381 600.641 52.1334 597.617 Q51.4968 594.594 51.4968 591.729 Q51.4968 583.995 55.5072 580.175 Q59.5176 576.356 67.6657 576.356 Z" fill="#000000" fill-rule="evenodd" fill-opacity="1" /><path clip-path="url(#clip060)" d="M 0 0 M42.2347 564.42 L52.3562 564.42 L52.3562 552.357 L56.9077 552.357 L56.9077 564.42 L76.2594 564.42 Q80.6199 564.42 81.8613 563.242 Q83.1026 562.033 83.1026 558.373 L83.1026 552.357 L88.0042 552.357 L88.0042 558.373 Q88.0042 565.152 85.4897 567.73 Q82.9434 570.308 76.2594 570.308 L56.9077 570.308 L56.9077 574.605 L52.3562 574.605 L52.3562 570.308 L42.2347 570.308 L42.2347 564.42 Z" fill="#000000" fill-rule="evenodd" fill-opacity="1" /><path clip-path="url(#clip060)" d="M 0 0 M68.7161 515.722 L71.5806 515.722 L71.5806 542.649 Q77.6281 542.267 80.8109 539.021 Q83.9619 535.743 83.9619 529.918 Q83.9619 526.544 83.1344 523.393 Q82.3069 520.21 80.6518 517.091 L86.1899 517.091 Q87.5267 520.242 88.227 523.552 Q88.9272 526.862 88.9272 530.268 Q88.9272 538.798 83.9619 543.795 Q78.9967 548.76 70.5303 548.76 Q61.7774 548.76 56.6531 544.05 Q51.4968 539.307 51.4968 531.287 Q51.4968 524.093 56.1438 519.924 Q60.7589 515.722 68.7161 515.722 M66.9973 521.579 Q62.1912 521.643 59.3266 524.284 Q56.4621 526.894 56.4621 531.223 Q56.4621 536.124 59.2312 539.085 Q62.0002 542.013 67.0292 542.458 L66.9973 521.579 Z" fill="#000000" fill-rule="evenodd" fill-opacity="1" /><path clip-path="url(#clip060)" d="M 0 0 M38.479 489.4 L38.479 475.905 L43.0304 475.905 L43.0304 483.544 L92.0464 483.544 L92.0464 475.905 L96.5979 475.905 L96.5979 489.4 L38.479 489.4 Z" fill="#000000" fill-rule="evenodd" fill-opacity="1" /><path clip-path="url(#clip060)" d="M 0 0 M82.5933 467.82 L82.5933 457.317 L46.3406 457.317 L48.6323 468.743 L42.7758 468.743 L40.4842 457.381 L40.4842 450.951 L82.5933 450.951 L82.5933 440.448 L88.0042 440.448 L88.0042 467.82 L82.5933 467.82 Z" fill="#000000" fill-rule="evenodd" fill-opacity="1" /><path clip-path="url(#clip060)" d="M 0 0 M40.4842 423.897 L40.4842 418.486 L94.0516 435.037 L94.0516 440.448 L40.4842 423.897 Z" fill="#000000" fill-rule="evenodd" fill-opacity="1" /><path clip-path="url(#clip060)" d="M 0 0 M53.4065 389.618 L58.9447 389.618 Q57.6716 392.1 57.035 394.774 Q56.3984 397.448 56.3984 400.312 Q56.3984 404.673 57.7352 406.869 Q59.072 409.033 61.7456 409.033 Q63.7826 409.033 64.9603 407.474 Q66.1061 405.914 67.1565 401.203 L67.6021 399.198 Q68.9389 392.96 71.3897 390.35 Q73.8086 387.708 78.1691 387.708 Q83.1344 387.708 86.0308 391.655 Q88.9272 395.57 88.9272 402.445 Q88.9272 405.309 88.3543 408.428 Q87.8132 411.516 86.6992 414.953 L80.6518 414.953 Q82.3387 411.707 83.198 408.556 Q84.0256 405.405 84.0256 402.317 Q84.0256 398.18 82.6251 395.952 Q81.1929 393.724 78.6147 393.724 Q76.2276 393.724 74.9545 395.347 Q73.6813 396.938 72.5037 402.381 L72.0262 404.418 Q70.8804 409.861 68.5251 412.28 Q66.138 414.699 62.0002 414.699 Q56.9713 414.699 54.2341 411.134 Q51.4968 407.569 51.4968 401.012 Q51.4968 397.766 51.9743 394.901 Q52.4517 392.037 53.4065 389.618 Z" fill="#000000" fill-rule="evenodd" fill-opacity="1" /><path clip-path="url(#clip060)" d="M 0 0 M38.479 367.879 L96.5979 367.879 L96.5979 381.374 L92.0464 381.374 L92.0464 373.767 L43.0304 373.767 L43.0304 381.374 L38.479 381.374 L38.479 367.879 Z" fill="#000000" fill-rule="evenodd" fill-opacity="1" /><polyline clip-path="url(#clip062)" style="stroke:#009af9; stroke-width:12; stroke-opacity:1; fill:none" points="
  358.889,1384.24 378.442,1384.24 397.996,1384.24 417.549,1384.24 437.103,1384.24 456.656,1384.24 476.21,1384.24 495.763,1384.24 515.316,1384.24 534.87,1384.24 
  554.423,1383.26 573.977,1373.5 593.53,1363.75 613.084,1353.99 632.637,1344.23 652.191,1334.47 671.744,1324.72 691.298,1314.96 710.851,1305.2 730.405,1295.45 
  749.958,1285.69 769.512,1275.93 789.065,1266.17 808.618,1256.42 828.172,1246.66 847.725,1236.9 867.279,1227.14 886.832,1217.39 906.386,1207.63 925.939,1197.87 
  945.493,1188.12 965.046,1178.36 984.6,1168.6 1004.15,1158.84 1023.71,1149.09 1043.26,1139.33 1062.81,1129.57 1082.37,1119.81 1101.92,1110.06 1121.47,1100.3 
  1141.03,1090.54 1160.58,1080.79 1180.13,1071.03 1199.69,1061.27 1219.24,1051.51 1238.79,1041.76 1258.35,1032 1277.9,1022.24 1297.46,1012.48 1317.01,1002.73 
  1336.56,992.97 1356.12,983.213 1375.67,973.456 1395.22,963.698 1414.78,953.941 1434.33,944.184 1453.88,934.427 1473.44,924.669 1492.99,914.912 1512.54,905.155 
  1532.1,895.398 1551.65,885.64 1571.2,875.883 1590.76,866.126 1610.31,856.368 1629.86,846.611 1649.42,836.854 1668.97,827.097 1688.52,817.339 1708.08,807.582 
  1727.63,797.825 1747.18,788.068 1766.74,778.31 1786.29,768.553 1805.85,758.796 1825.4,749.039 1844.95,739.281 1864.51,729.524 1884.06,719.767 1903.61,710.009 
  1923.17,700.252 1942.72,690.495 1962.27,680.738 1981.83,670.98 2001.38,661.223 2020.93,651.466 2040.49,641.709 2060.04,631.951 2079.59,622.194 2099.15,612.437 
  2118.7,602.68 2138.25,592.922 2157.81,583.165 2177.36,573.408 2196.91,563.65 2216.47,553.893 2236.02,544.136 2255.58,534.379 2275.13,524.621 2294.68,514.864 
  
  "/>
<polyline clip-path="url(#clip062)" style="stroke:#e26f46; stroke-width:12; stroke-opacity:1; fill:none" points="
  358.889,1384.06 378.442,1263.96 397.996,1211.98 417.549,1172.4 437.103,1139.33 456.656,1110.44 476.21,1084.56 495.763,1060.97 515.316,1039.22 534.87,1018.98 
  554.423,1000.01 573.977,982.143 593.53,965.233 613.084,949.171 632.637,933.867 652.191,919.245 671.744,905.244 691.298,891.811 710.851,878.9 730.405,866.472 
  749.958,854.493 769.512,842.932 789.065,831.763 808.618,820.963 828.172,810.509 847.725,800.383 867.279,790.568 886.832,781.047 906.386,771.807 925.939,762.835 
  945.493,754.119 965.046,745.648 984.6,737.411 1004.15,729.399 1023.71,721.604 1043.26,714.017 1062.81,706.632 1082.37,699.44 1101.92,692.436 1121.47,685.613 
  1141.03,678.965 1160.58,672.487 1180.13,666.174 1199.69,660.022 1219.24,654.024 1238.79,648.178 1258.35,642.479 1277.9,636.923 1297.46,631.507 1317.01,626.227 
  1336.56,621.079 1356.12,616.061 1375.67,611.17 1395.22,606.402 1414.78,601.755 1434.33,597.226 1453.88,592.813 1473.44,588.513 1492.99,584.324 1512.54,580.244 
  1532.1,576.27 1551.65,572.401 1571.2,568.635 1590.76,564.969 1610.31,561.402 1629.86,557.932 1649.42,554.557 1668.97,551.277 1688.52,548.088 1708.08,544.99 
  1727.63,541.981 1747.18,539.06 1766.74,536.225 1786.29,533.475 1805.85,530.809 1825.4,528.225 1844.95,525.723 1864.51,523.301 1884.06,520.957 1903.61,518.692 
  1923.17,516.503 1942.72,514.39 1962.27,512.351 1981.83,510.387 2001.38,508.495 2020.93,506.674 2040.49,504.925 2060.04,503.246 2079.59,501.636 2099.15,500.094 
  2118.7,498.62 2138.25,497.212 2157.81,495.87 2177.36,494.594 2196.91,493.382 2216.47,492.233 2236.02,491.148 2255.58,490.125 2275.13,489.164 2294.68,488.264 
  
  "/>
<polyline clip-path="url(#clip062)" style="stroke:#3da44d; stroke-width:12; stroke-opacity:1; fill:none" points="
  358.889,1384.02 378.442,1238.55 397.996,1175.54 417.549,1127.56 437.103,1087.44 456.656,1052.38 476.21,1020.95 495.763,992.301 515.316,965.863 534.87,941.249 
  554.423,918.175 573.977,896.424 593.53,875.83 613.084,856.256 632.637,837.596 652.191,819.758 671.744,802.668 691.298,786.261 710.851,770.482 730.405,755.284 
  749.958,740.626 769.512,726.47 789.065,712.786 808.618,699.544 828.172,686.718 847.725,674.286 867.279,662.227 886.832,650.521 906.386,639.153 925.939,628.105 
  945.493,617.364 965.046,606.916 984.6,596.749 1004.15,586.852 1023.71,577.215 1043.26,567.827 1062.81,558.679 1082.37,549.763 1101.92,541.072 1121.47,532.597 
  1141.03,524.332 1160.58,516.27 1180.13,508.406 1199.69,500.732 1219.24,493.244 1238.79,485.937 1258.35,478.805 1277.9,471.844 1297.46,465.05 1317.01,458.418 
  1336.56,451.944 1356.12,445.624 1375.67,439.456 1395.22,433.435 1414.78,427.557 1434.33,421.821 1453.88,416.223 1473.44,410.759 1492.99,405.427 1512.54,400.225 
  1532.1,395.15 1551.65,390.2 1571.2,385.371 1590.76,380.662 1610.31,376.07 1629.86,371.594 1649.42,367.232 1668.97,362.981 1688.52,358.839 1708.08,354.805 
  1727.63,350.877 1747.18,347.053 1766.74,343.332 1786.29,339.711 1805.85,336.19 1825.4,332.767 1844.95,329.44 1864.51,326.209 1884.06,323.071 1903.61,320.025 
  1923.17,317.07 1942.72,314.205 1962.27,311.429 1981.83,308.74 2001.38,306.137 2020.93,303.62 2040.49,301.186 2060.04,298.835 2079.59,296.566 2099.15,294.379 
  2118.7,292.271 2138.25,290.242 2157.81,288.291 2177.36,286.417 2196.91,284.62 2216.47,282.898 2236.02,281.25 2255.58,279.677 2275.13,278.176 2294.68,276.747 
  
  "/>
<polyline clip-path="url(#clip062)" style="stroke:#c271d2; stroke-width:12; stroke-opacity:1; fill:none" points="
  358.889,1383.98 378.442,1215.58 397.996,1142.63 417.549,1087.05 437.103,1040.57 456.656,999.936 476.21,963.503 495.763,930.276 515.316,899.608 534.87,871.047 
  554.423,844.263 573.977,819.008 593.53,795.087 613.084,772.345 632.637,750.656 652.191,729.916 671.744,710.037 691.298,690.947 710.851,672.58 730.405,654.883 
  749.958,637.808 769.512,621.312 789.065,605.359 808.618,589.915 828.172,574.951 847.725,560.439 867.279,546.357 886.832,532.682 906.386,519.394 925.939,506.475 
  945.493,493.909 965.046,481.68 984.6,469.775 1004.15,458.179 1023.71,446.881 1043.26,435.87 1062.81,425.136 1082.37,414.668 1101.92,404.457 1121.47,394.495 
  1141.03,384.774 1160.58,375.286 1180.13,366.024 1199.69,356.982 1219.24,348.153 1238.79,339.53 1258.35,331.109 1277.9,322.885 1297.46,314.851 1317.01,307.003 
  1336.56,299.337 1356.12,291.847 1375.67,284.531 1395.22,277.383 1414.78,270.4 1434.33,263.579 1453.88,256.916 1473.44,250.407 1492.99,244.049 1512.54,237.839 
  1532.1,231.775 1551.65,225.853 1571.2,220.071 1590.76,214.426 1610.31,208.915 1629.86,203.537 1649.42,198.288 1668.97,193.167 1688.52,188.171 1708.08,183.298 
  1727.63,178.546 1747.18,173.913 1766.74,169.397 1786.29,164.997 1805.85,160.711 1825.4,156.536 1844.95,152.472 1864.51,148.516 1884.06,144.667 1903.61,140.923 
  1923.17,137.284 1942.72,133.747 1962.27,130.311 1981.83,126.975 2001.38,123.737 2020.93,120.596 2040.49,117.552 2060.04,114.602 2079.59,111.745 2099.15,108.981 
  2118.7,106.308 2138.25,103.726 2157.81,101.232 2177.36,98.8264 2196.91,96.5077 2216.47,94.2751 2236.02,92.1275 2255.58,90.064 2275.13,88.0837 2294.68,86.1857 
  
  "/>
<path clip-path="url(#clip060)" d="
M1751.22 433.164 L2280.76 433.164 L2280.76 130.764 L1751.22 130.764  Z
  " fill="#ffffff" fill-rule="evenodd" fill-opacity="1"/>
<polyline clip-path="url(#clip060)" style="stroke:#000000; stroke-width:4; stroke-opacity:1; fill:none" points="
  1751.22,433.164 2280.76,433.164 2280.76,130.764 1751.22,130.764 1751.22,433.164 
  "/>
<polyline clip-path="url(#clip060)" style="stroke:#009af9; stroke-width:4; stroke-opacity:1; fill:none" points="
  1775.22,191.244 1919.22,191.244 
  "/>
<path clip-path="url(#clip060)" d="M 0 0 M1959.61 192.32 Q1961.11 192.83 1962.53 194.496 Q1963.96 196.163 1965.4 199.08 L1970.14 208.524 L1965.12 208.524 L1960.7 199.658 Q1958.98 196.186 1957.36 195.052 Q1955.77 193.918 1952.99 193.918 L1947.9 193.918 L1947.9 208.524 L1943.22 208.524 L1943.22 173.964 L1953.78 173.964 Q1959.7 173.964 1962.62 176.441 Q1965.54 178.918 1965.54 183.918 Q1965.54 187.182 1964.01 189.334 Q1962.5 191.487 1959.61 192.32 M1947.9 177.807 L1947.9 190.075 L1953.78 190.075 Q1957.16 190.075 1958.87 188.524 Q1960.6 186.95 1960.6 183.918 Q1960.6 180.885 1958.87 179.358 Q1957.16 177.807 1953.78 177.807 L1947.9 177.807 Z" fill="#000000" fill-rule="evenodd" fill-opacity="1" /><path clip-path="url(#clip060)" d="M 0 0 M1985.35 195.492 Q1980.19 195.492 1978.2 196.672 Q1976.21 197.853 1976.21 200.7 Q1976.21 202.969 1977.69 204.311 Q1979.19 205.631 1981.76 205.631 Q1985.3 205.631 1987.43 203.131 Q1989.59 200.607 1989.59 196.441 L1989.59 195.492 L1985.35 195.492 M1993.85 193.733 L1993.85 208.524 L1989.59 208.524 L1989.59 204.589 Q1988.13 206.95 1985.95 208.084 Q1983.78 209.195 1980.63 209.195 Q1976.65 209.195 1974.29 206.973 Q1971.95 204.728 1971.95 200.978 Q1971.95 196.603 1974.86 194.381 Q1977.8 192.158 1983.61 192.158 L1989.59 192.158 L1989.59 191.742 Q1989.59 188.802 1987.64 187.205 Q1985.72 185.584 1982.22 185.584 Q1980 185.584 1977.9 186.117 Q1975.79 186.649 1973.85 187.714 L1973.85 183.779 Q1976.18 182.876 1978.38 182.436 Q1980.58 181.973 1982.66 181.973 Q1988.29 181.973 1991.07 184.89 Q1993.85 187.807 1993.85 193.733 Z" fill="#000000" fill-rule="evenodd" fill-opacity="1" /><path clip-path="url(#clip060)" d="M 0 0 M1998.31 182.598 L2002.57 182.598 L2002.57 208.524 L1998.31 208.524 L1998.31 182.598 M1998.31 172.506 L2002.57 172.506 L2002.57 177.899 L1998.31 177.899 L1998.31 172.506 Z" fill="#000000" fill-rule="evenodd" fill-opacity="1" /><path clip-path="url(#clip060)" d="M 0 0 M2028.59 192.876 L2028.59 208.524 L2024.33 208.524 L2024.33 193.015 Q2024.33 189.334 2022.9 187.506 Q2021.46 185.677 2018.59 185.677 Q2015.14 185.677 2013.15 187.876 Q2011.16 190.075 2011.16 193.871 L2011.16 208.524 L2006.88 208.524 L2006.88 182.598 L2011.16 182.598 L2011.16 186.626 Q2012.69 184.288 2014.75 183.131 Q2016.83 181.973 2019.54 181.973 Q2024.01 181.973 2026.3 184.751 Q2028.59 187.506 2028.59 192.876 Z" fill="#000000" fill-rule="evenodd" fill-opacity="1" /><polyline clip-path="url(#clip060)" style="stroke:#e26f46; stroke-width:4; stroke-opacity:1; fill:none" points="
  1775.22,251.724 1919.22,251.724 
  "/>
<path clip-path="url(#clip060)" d="M 0 0 M1965.47 235.578 L1965.47 240.139 Q1962.8 238.865 1960.44 238.24 Q1958.08 237.615 1955.88 237.615 Q1952.06 237.615 1949.98 239.097 Q1947.92 240.578 1947.92 243.31 Q1947.92 245.601 1949.29 246.782 Q1950.67 247.939 1954.52 248.657 L1957.34 249.236 Q1962.57 250.231 1965.05 252.754 Q1967.55 255.254 1967.55 259.467 Q1967.55 264.49 1964.17 267.083 Q1960.81 269.675 1954.31 269.675 Q1951.85 269.675 1949.08 269.12 Q1946.32 268.564 1943.36 267.476 L1943.36 262.662 Q1946.21 264.259 1948.94 265.069 Q1951.67 265.879 1954.31 265.879 Q1958.31 265.879 1960.49 264.305 Q1962.66 262.731 1962.66 259.814 Q1962.66 257.268 1961.09 255.833 Q1959.54 254.398 1955.97 253.68 L1953.13 253.125 Q1947.9 252.083 1945.56 249.861 Q1943.22 247.638 1943.22 243.68 Q1943.22 239.097 1946.44 236.458 Q1949.68 233.819 1955.35 233.819 Q1957.78 233.819 1960.3 234.259 Q1962.83 234.699 1965.47 235.578 Z" fill="#000000" fill-rule="evenodd" fill-opacity="1" /><path clip-path="url(#clip060)" d="M 0 0 M1993.57 253.356 L1993.57 269.004 L1989.31 269.004 L1989.31 253.495 Q1989.31 249.814 1987.87 247.986 Q1986.44 246.157 1983.57 246.157 Q1980.12 246.157 1978.13 248.356 Q1976.14 250.555 1976.14 254.351 L1976.14 269.004 L1971.85 269.004 L1971.85 243.078 L1976.14 243.078 L1976.14 247.106 Q1977.66 244.768 1979.72 243.611 Q1981.81 242.453 1984.52 242.453 Q1988.98 242.453 1991.28 245.231 Q1993.57 247.986 1993.57 253.356 Z" fill="#000000" fill-rule="evenodd" fill-opacity="1" /><path clip-path="url(#clip060)" d="M 0 0 M2008.08 246.064 Q2004.66 246.064 2002.66 248.75 Q2000.67 251.412 2000.67 256.064 Q2000.67 260.717 2002.64 263.402 Q2004.63 266.064 2008.08 266.064 Q2011.48 266.064 2013.47 263.379 Q2015.47 260.694 2015.47 256.064 Q2015.47 251.458 2013.47 248.773 Q2011.48 246.064 2008.08 246.064 M2008.08 242.453 Q2013.64 242.453 2016.81 246.064 Q2019.98 249.675 2019.98 256.064 Q2019.98 262.43 2016.81 266.064 Q2013.64 269.675 2008.08 269.675 Q2002.5 269.675 1999.33 266.064 Q1996.18 262.43 1996.18 256.064 Q1996.18 249.675 1999.33 246.064 Q2002.5 242.453 2008.08 242.453 Z" fill="#000000" fill-rule="evenodd" fill-opacity="1" /><path clip-path="url(#clip060)" d="M 0 0 M2021.97 243.078 L2026.23 243.078 L2031.55 263.31 L2036.85 243.078 L2041.88 243.078 L2047.2 263.31 L2052.5 243.078 L2056.76 243.078 L2049.98 269.004 L2044.96 269.004 L2039.38 247.754 L2033.78 269.004 L2028.75 269.004 L2021.97 243.078 Z" fill="#000000" fill-rule="evenodd" fill-opacity="1" /><path clip-path="url(#clip060)" d="M 0 0 M2071.69 234.444 L2100.93 234.444 L2100.93 238.379 L2088.66 238.379 L2088.66 269.004 L2083.96 269.004 L2083.96 238.379 L2071.69 238.379 L2071.69 234.444 Z" fill="#000000" fill-rule="evenodd" fill-opacity="1" /><path clip-path="url(#clip060)" d="M 0 0 M2105.95 247.476 L2135.63 247.476 L2135.63 251.365 L2105.95 251.365 L2105.95 247.476 M2105.95 256.921 L2135.63 256.921 L2135.63 260.856 L2105.95 260.856 L2105.95 256.921 Z" fill="#000000" fill-rule="evenodd" fill-opacity="1" /><path clip-path="url(#clip060)" d="M 0 0 M2137.94 254.12 L2150.42 254.12 L2150.42 257.916 L2137.94 257.916 L2137.94 254.12 Z" fill="#000000" fill-rule="evenodd" fill-opacity="1" /><path clip-path="url(#clip060)" d="M 0 0 M2155.53 234.444 L2173.89 234.444 L2173.89 238.379 L2159.82 238.379 L2159.82 246.851 Q2160.83 246.504 2161.85 246.342 Q2162.87 246.157 2163.89 246.157 Q2169.68 246.157 2173.06 249.328 Q2176.44 252.5 2176.44 257.916 Q2176.44 263.495 2172.96 266.597 Q2169.49 269.675 2163.17 269.675 Q2161 269.675 2158.73 269.305 Q2156.48 268.935 2154.08 268.194 L2154.08 263.495 Q2156.16 264.629 2158.38 265.185 Q2160.6 265.74 2163.08 265.74 Q2167.08 265.74 2169.42 263.634 Q2171.76 261.527 2171.76 257.916 Q2171.76 254.305 2169.42 252.199 Q2167.08 250.092 2163.08 250.092 Q2161.21 250.092 2159.33 250.509 Q2157.48 250.925 2155.53 251.805 L2155.53 234.444 Z" fill="#000000" fill-rule="evenodd" fill-opacity="1" /><path clip-path="url(#clip060)" d="M 0 0 M2206.97 237.106 L2206.97 242.037 Q2204.61 239.838 2201.92 238.75 Q2199.26 237.662 2196.25 237.662 Q2190.33 237.662 2187.18 241.296 Q2184.03 244.907 2184.03 251.759 Q2184.03 258.587 2187.18 262.222 Q2190.33 265.833 2196.25 265.833 Q2199.26 265.833 2201.92 264.745 Q2204.61 263.657 2206.97 261.458 L2206.97 266.342 Q2204.52 268.009 2201.76 268.842 Q2199.03 269.675 2195.97 269.675 Q2188.13 269.675 2183.61 264.884 Q2179.1 260.069 2179.1 251.759 Q2179.1 243.426 2183.61 238.634 Q2188.13 233.819 2195.97 233.819 Q2199.08 233.819 2201.81 234.652 Q2204.56 235.463 2206.97 237.106 Z" fill="#000000" fill-rule="evenodd" fill-opacity="1" /><polyline clip-path="url(#clip060)" style="stroke:#3da44d; stroke-width:4; stroke-opacity:1; fill:none" points="
  1775.22,312.204 1919.22,312.204 
  "/>
<path clip-path="url(#clip060)" d="M 0 0 M1965.47 296.058 L1965.47 300.619 Q1962.8 299.345 1960.44 298.72 Q1958.08 298.095 1955.88 298.095 Q1952.06 298.095 1949.98 299.577 Q1947.92 301.058 1947.92 303.79 Q1947.92 306.081 1949.29 307.262 Q1950.67 308.419 1954.52 309.137 L1957.34 309.716 Q1962.57 310.711 1965.05 313.234 Q1967.55 315.734 1967.55 319.947 Q1967.55 324.97 1964.17 327.563 Q1960.81 330.155 1954.31 330.155 Q1951.85 330.155 1949.08 329.6 Q1946.32 329.044 1943.36 327.956 L1943.36 323.142 Q1946.21 324.739 1948.94 325.549 Q1951.67 326.359 1954.31 326.359 Q1958.31 326.359 1960.49 324.785 Q1962.66 323.211 1962.66 320.294 Q1962.66 317.748 1961.09 316.313 Q1959.54 314.878 1955.97 314.16 L1953.13 313.605 Q1947.9 312.563 1945.56 310.341 Q1943.22 308.118 1943.22 304.16 Q1943.22 299.577 1946.44 296.938 Q1949.68 294.299 1955.35 294.299 Q1957.78 294.299 1960.3 294.739 Q1962.83 295.179 1965.47 296.058 Z" fill="#000000" fill-rule="evenodd" fill-opacity="1" /><path clip-path="url(#clip060)" d="M 0 0 M1993.57 313.836 L1993.57 329.484 L1989.31 329.484 L1989.31 313.975 Q1989.31 310.294 1987.87 308.466 Q1986.44 306.637 1983.57 306.637 Q1980.12 306.637 1978.13 308.836 Q1976.14 311.035 1976.14 314.831 L1976.14 329.484 L1971.85 329.484 L1971.85 303.558 L1976.14 303.558 L1976.14 307.586 Q1977.66 305.248 1979.72 304.091 Q1981.81 302.933 1984.52 302.933 Q1988.98 302.933 1991.28 305.711 Q1993.57 308.466 1993.57 313.836 Z" fill="#000000" fill-rule="evenodd" fill-opacity="1" /><path clip-path="url(#clip060)" d="M 0 0 M2008.08 306.544 Q2004.66 306.544 2002.66 309.23 Q2000.67 311.892 2000.67 316.544 Q2000.67 321.197 2002.64 323.882 Q2004.63 326.544 2008.08 326.544 Q2011.48 326.544 2013.47 323.859 Q2015.47 321.174 2015.47 316.544 Q2015.47 311.938 2013.47 309.253 Q2011.48 306.544 2008.08 306.544 M2008.08 302.933 Q2013.64 302.933 2016.81 306.544 Q2019.98 310.155 2019.98 316.544 Q2019.98 322.91 2016.81 326.544 Q2013.64 330.155 2008.08 330.155 Q2002.5 330.155 1999.33 326.544 Q1996.18 322.91 1996.18 316.544 Q1996.18 310.155 1999.33 306.544 Q2002.5 302.933 2008.08 302.933 Z" fill="#000000" fill-rule="evenodd" fill-opacity="1" /><path clip-path="url(#clip060)" d="M 0 0 M2021.97 303.558 L2026.23 303.558 L2031.55 323.79 L2036.85 303.558 L2041.88 303.558 L2047.2 323.79 L2052.5 303.558 L2056.76 303.558 L2049.98 329.484 L2044.96 329.484 L2039.38 308.234 L2033.78 329.484 L2028.75 329.484 L2021.97 303.558 Z" fill="#000000" fill-rule="evenodd" fill-opacity="1" /><path clip-path="url(#clip060)" d="M 0 0 M2071.69 294.924 L2100.93 294.924 L2100.93 298.859 L2088.66 298.859 L2088.66 329.484 L2083.96 329.484 L2083.96 298.859 L2071.69 298.859 L2071.69 294.924 Z" fill="#000000" fill-rule="evenodd" fill-opacity="1" /><path clip-path="url(#clip060)" d="M 0 0 M2105.95 307.956 L2135.63 307.956 L2135.63 311.845 L2105.95 311.845 L2105.95 307.956 M2105.95 317.401 L2135.63 317.401 L2135.63 321.336 L2105.95 321.336 L2105.95 317.401 Z" fill="#000000" fill-rule="evenodd" fill-opacity="1" /><path clip-path="url(#clip060)" d="M 0 0 M2137.94 314.6 L2150.42 314.6 L2150.42 318.396 L2137.94 318.396 L2137.94 314.6 Z" fill="#000000" fill-rule="evenodd" fill-opacity="1" /><path clip-path="url(#clip060)" d="M 0 0 M2156.3 325.549 L2163.94 325.549 L2163.94 299.183 L2155.63 300.85 L2155.63 296.591 L2163.89 294.924 L2168.57 294.924 L2168.57 325.549 L2176.21 325.549 L2176.21 329.484 L2156.3 329.484 L2156.3 325.549 Z" fill="#000000" fill-rule="evenodd" fill-opacity="1" /><path clip-path="url(#clip060)" d="M 0 0 M2181.32 294.924 L2199.68 294.924 L2199.68 298.859 L2185.6 298.859 L2185.6 307.331 Q2186.62 306.984 2187.64 306.822 Q2188.66 306.637 2189.68 306.637 Q2195.46 306.637 2198.84 309.808 Q2202.22 312.98 2202.22 318.396 Q2202.22 323.975 2198.75 327.077 Q2195.28 330.155 2188.96 330.155 Q2186.78 330.155 2184.52 329.785 Q2182.27 329.415 2179.86 328.674 L2179.86 323.975 Q2181.95 325.109 2184.17 325.665 Q2186.39 326.22 2188.87 326.22 Q2192.87 326.22 2195.21 324.114 Q2197.55 322.007 2197.55 318.396 Q2197.55 314.785 2195.21 312.679 Q2192.87 310.572 2188.87 310.572 Q2186.99 310.572 2185.12 310.989 Q2183.27 311.405 2181.32 312.285 L2181.32 294.924 Z" fill="#000000" fill-rule="evenodd" fill-opacity="1" /><path clip-path="url(#clip060)" d="M 0 0 M2232.76 297.586 L2232.76 302.517 Q2230.39 300.318 2227.71 299.23 Q2225.05 298.142 2222.04 298.142 Q2216.11 298.142 2212.96 301.776 Q2209.82 305.387 2209.82 312.239 Q2209.82 319.067 2212.96 322.702 Q2216.11 326.313 2222.04 326.313 Q2225.05 326.313 2227.71 325.225 Q2230.39 324.137 2232.76 321.938 L2232.76 326.822 Q2230.3 328.489 2227.55 329.322 Q2224.82 330.155 2221.76 330.155 Q2213.91 330.155 2209.4 325.364 Q2204.89 320.549 2204.89 312.239 Q2204.89 303.906 2209.4 299.114 Q2213.91 294.299 2221.76 294.299 Q2224.86 294.299 2227.59 295.132 Q2230.35 295.943 2232.76 297.586 Z" fill="#000000" fill-rule="evenodd" fill-opacity="1" /><polyline clip-path="url(#clip060)" style="stroke:#c271d2; stroke-width:4; stroke-opacity:1; fill:none" points="
  1775.22,372.684 1919.22,372.684 
  "/>
<path clip-path="url(#clip060)" d="M 0 0 M1965.47 356.538 L1965.47 361.099 Q1962.8 359.825 1960.44 359.2 Q1958.08 358.575 1955.88 358.575 Q1952.06 358.575 1949.98 360.057 Q1947.92 361.538 1947.92 364.27 Q1947.92 366.561 1949.29 367.742 Q1950.67 368.899 1954.52 369.617 L1957.34 370.196 Q1962.57 371.191 1965.05 373.714 Q1967.55 376.214 1967.55 380.427 Q1967.55 385.45 1964.17 388.043 Q1960.81 390.635 1954.31 390.635 Q1951.85 390.635 1949.08 390.08 Q1946.32 389.524 1943.36 388.436 L1943.36 383.622 Q1946.21 385.219 1948.94 386.029 Q1951.67 386.839 1954.31 386.839 Q1958.31 386.839 1960.49 385.265 Q1962.66 383.691 1962.66 380.774 Q1962.66 378.228 1961.09 376.793 Q1959.54 375.358 1955.97 374.64 L1953.13 374.085 Q1947.9 373.043 1945.56 370.821 Q1943.22 368.598 1943.22 364.64 Q1943.22 360.057 1946.44 357.418 Q1949.68 354.779 1955.35 354.779 Q1957.78 354.779 1960.3 355.219 Q1962.83 355.659 1965.47 356.538 Z" fill="#000000" fill-rule="evenodd" fill-opacity="1" /><path clip-path="url(#clip060)" d="M 0 0 M1993.57 374.316 L1993.57 389.964 L1989.31 389.964 L1989.31 374.455 Q1989.31 370.774 1987.87 368.946 Q1986.44 367.117 1983.57 367.117 Q1980.12 367.117 1978.13 369.316 Q1976.14 371.515 1976.14 375.311 L1976.14 389.964 L1971.85 389.964 L1971.85 364.038 L1976.14 364.038 L1976.14 368.066 Q1977.66 365.728 1979.72 364.571 Q1981.81 363.413 1984.52 363.413 Q1988.98 363.413 1991.28 366.191 Q1993.57 368.946 1993.57 374.316 Z" fill="#000000" fill-rule="evenodd" fill-opacity="1" /><path clip-path="url(#clip060)" d="M 0 0 M2008.08 367.024 Q2004.66 367.024 2002.66 369.71 Q2000.67 372.372 2000.67 377.024 Q2000.67 381.677 2002.64 384.362 Q2004.63 387.024 2008.08 387.024 Q2011.48 387.024 2013.47 384.339 Q2015.47 381.654 2015.47 377.024 Q2015.47 372.418 2013.47 369.733 Q2011.48 367.024 2008.08 367.024 M2008.08 363.413 Q2013.64 363.413 2016.81 367.024 Q2019.98 370.635 2019.98 377.024 Q2019.98 383.39 2016.81 387.024 Q2013.64 390.635 2008.08 390.635 Q2002.5 390.635 1999.33 387.024 Q1996.18 383.39 1996.18 377.024 Q1996.18 370.635 1999.33 367.024 Q2002.5 363.413 2008.08 363.413 Z" fill="#000000" fill-rule="evenodd" fill-opacity="1" /><path clip-path="url(#clip060)" d="M 0 0 M2021.97 364.038 L2026.23 364.038 L2031.55 384.27 L2036.85 364.038 L2041.88 364.038 L2047.2 384.27 L2052.5 364.038 L2056.76 364.038 L2049.98 389.964 L2044.96 389.964 L2039.38 368.714 L2033.78 389.964 L2028.75 389.964 L2021.97 364.038 Z" fill="#000000" fill-rule="evenodd" fill-opacity="1" /><path clip-path="url(#clip060)" d="M 0 0 M2071.69 355.404 L2100.93 355.404 L2100.93 359.339 L2088.66 359.339 L2088.66 389.964 L2083.96 389.964 L2083.96 359.339 L2071.69 359.339 L2071.69 355.404 Z" fill="#000000" fill-rule="evenodd" fill-opacity="1" /><path clip-path="url(#clip060)" d="M 0 0 M2105.95 368.436 L2135.63 368.436 L2135.63 372.325 L2105.95 372.325 L2105.95 368.436 M2105.95 377.881 L2135.63 377.881 L2135.63 381.816 L2105.95 381.816 L2105.95 377.881 Z" fill="#000000" fill-rule="evenodd" fill-opacity="1" /><path clip-path="url(#clip060)" d="M 0 0 M2137.94 375.08 L2150.42 375.08 L2150.42 378.876 L2137.94 378.876 L2137.94 375.08 Z" fill="#000000" fill-rule="evenodd" fill-opacity="1" /><path clip-path="url(#clip060)" d="M 0 0 M2159.52 386.029 L2175.83 386.029 L2175.83 389.964 L2153.89 389.964 L2153.89 386.029 Q2156.55 383.274 2161.14 378.645 Q2165.74 373.992 2166.92 372.649 Q2169.17 370.126 2170.05 368.39 Q2170.95 366.631 2170.95 364.941 Q2170.95 362.186 2169.01 360.45 Q2167.08 358.714 2163.98 358.714 Q2161.78 358.714 2159.33 359.478 Q2156.9 360.242 2154.12 361.793 L2154.12 357.071 Q2156.95 355.936 2159.4 355.358 Q2161.85 354.779 2163.89 354.779 Q2169.26 354.779 2172.46 357.464 Q2175.65 360.149 2175.65 364.64 Q2175.65 366.77 2174.84 368.691 Q2174.05 370.589 2171.95 373.182 Q2171.37 373.853 2168.27 377.071 Q2165.16 380.265 2159.52 386.029 Z" fill="#000000" fill-rule="evenodd" fill-opacity="1" /><path clip-path="url(#clip060)" d="M 0 0 M2180.95 355.404 L2199.31 355.404 L2199.31 359.339 L2185.23 359.339 L2185.23 367.811 Q2186.25 367.464 2187.27 367.302 Q2188.29 367.117 2189.31 367.117 Q2195.09 367.117 2198.47 370.288 Q2201.85 373.46 2201.85 378.876 Q2201.85 384.455 2198.38 387.557 Q2194.91 390.635 2188.59 390.635 Q2186.41 390.635 2184.15 390.265 Q2181.9 389.895 2179.49 389.154 L2179.49 384.455 Q2181.58 385.589 2183.8 386.145 Q2186.02 386.7 2188.5 386.7 Q2192.5 386.7 2194.84 384.594 Q2197.18 382.487 2197.18 378.876 Q2197.18 375.265 2194.84 373.159 Q2192.5 371.052 2188.5 371.052 Q2186.62 371.052 2184.75 371.469 Q2182.9 371.885 2180.95 372.765 L2180.95 355.404 Z" fill="#000000" fill-rule="evenodd" fill-opacity="1" /><path clip-path="url(#clip060)" d="M 0 0 M2232.39 358.066 L2232.39 362.997 Q2230.02 360.798 2227.34 359.71 Q2224.68 358.622 2221.67 358.622 Q2215.74 358.622 2212.59 362.256 Q2209.45 365.867 2209.45 372.719 Q2209.45 379.547 2212.59 383.182 Q2215.74 386.793 2221.67 386.793 Q2224.68 386.793 2227.34 385.705 Q2230.02 384.617 2232.39 382.418 L2232.39 387.302 Q2229.93 388.969 2227.18 389.802 Q2224.45 390.635 2221.39 390.635 Q2213.54 390.635 2209.03 385.844 Q2204.52 381.029 2204.52 372.719 Q2204.52 364.386 2209.03 359.594 Q2213.54 354.779 2221.39 354.779 Q2224.49 354.779 2227.22 355.612 Q2229.98 356.423 2232.39 358.066 Z" fill="#000000" fill-rule="evenodd" fill-opacity="1" /></svg>
